<svg width="799" height="504" viewBox="0 0 799 504" fill="none" xmlns="http://www.w3.org/2000/svg">
<path d="M37.0006 313.654C66.8826 303.591 97.7633 293.195 158.526 293.195C219.289 293.195 250.17 303.591 280.052 313.654C309.959 323.742 340.917 334.164 401.756 334.164C462.596 334.164 493.554 323.742 523.461 313.654C553.343 303.591 584.224 293.195 644.987 293.195C705.75 293.195 736.63 303.591 766.512 313.654C796.446 323.742 827.378 334.164 888.243 334.164C894.439 334.164 900.329 334.062 905.936 333.857C905.322 333.678 904.707 333.473 904.093 333.293C899.048 333.447 893.774 333.55 888.243 333.55C827.48 333.55 796.599 323.154 766.717 313.09C736.784 303.002 705.852 292.58 644.987 292.58C584.122 292.58 553.19 303.002 523.256 313.09C493.374 323.154 462.494 333.55 401.731 333.55C340.968 333.55 310.087 323.154 280.205 313.09C250.272 303.002 219.34 292.58 158.475 292.58C97.6097 292.58 66.6778 303.002 36.7445 313.09C36.6165 313.142 36.4628 313.193 36.3348 313.218C36.13 313.5 35.9507 313.807 35.7715 314.089C36.1556 313.961 36.5653 313.833 36.9494 313.679L37.0006 313.654Z" fill="#074667"/>
<path d="M280.052 300.849C309.959 310.938 340.917 321.36 401.756 321.36C462.596 321.36 493.554 310.938 523.461 300.849C553.343 290.786 584.224 280.39 644.987 280.39C705.75 280.39 736.63 290.786 766.512 300.849C794.807 310.375 824.023 320.208 878.538 321.257C878.18 321.027 877.821 320.822 877.488 320.592C823.741 319.439 794.781 309.683 766.717 300.235C736.784 290.146 705.852 279.725 644.987 279.725C584.122 279.725 553.19 290.146 523.256 300.235C493.374 310.298 462.494 320.694 401.731 320.694C340.968 320.694 310.087 310.298 280.205 300.235C250.272 290.146 219.34 279.725 158.475 279.725C105.547 279.725 75.2557 287.611 48.5744 296.292C48.3439 296.599 48.0879 296.881 47.8574 297.188C74.718 288.405 105.035 280.365 158.475 280.365C219.238 280.365 250.118 290.761 280 300.824L280.052 300.849Z" fill="#074667"/>
<path d="M37.0003 326.455C66.8824 316.392 97.7631 305.996 158.526 305.996C219.289 305.996 250.169 316.392 280.051 326.455C309.959 336.543 340.917 346.965 401.756 346.965C462.596 346.965 493.553 336.543 523.461 326.455C553.343 316.392 584.224 305.996 644.987 305.996C705.749 305.996 736.63 316.392 766.512 326.455C796.445 336.543 827.377 346.965 888.242 346.965C949.108 346.965 980.04 336.543 1009.97 326.455C1039.86 316.392 1070.74 305.996 1131.5 305.996C1192.26 305.996 1223.14 316.392 1253.02 326.455C1282.93 336.543 1313.89 346.965 1374.73 346.965C1435.57 346.965 1466.53 336.543 1496.43 326.455C1524.86 316.878 1554.25 306.994 1609.38 306.072C1609.38 305.868 1609.38 305.637 1609.38 305.432C1554.12 306.354 1524.7 316.264 1496.23 325.866C1466.35 335.929 1435.47 346.325 1374.7 346.325C1313.94 346.325 1283.06 335.929 1253.18 325.866C1223.24 315.777 1192.31 305.355 1131.45 305.355C1070.58 305.355 1039.65 315.777 1009.72 325.866C979.835 335.929 948.954 346.325 888.191 346.325C827.428 346.325 796.548 335.929 766.666 325.866C736.732 315.777 705.801 305.355 644.935 305.355C584.07 305.355 553.138 315.777 523.205 325.866C493.323 335.929 462.442 346.325 401.679 346.325C340.917 346.325 310.036 335.929 280.154 325.866C250.221 315.777 219.289 305.355 158.423 305.355C97.5582 305.355 66.6263 315.777 36.693 325.866C33.185 327.044 29.6514 328.247 26.0666 329.399C25.913 329.681 25.7593 329.963 25.5801 330.219C29.3954 328.964 33.1594 327.709 36.8723 326.455H37.0003Z" fill="#074667"/>
<path d="M37.0006 339.258C66.8827 329.195 97.7634 318.799 158.526 318.799C219.289 318.799 250.17 329.195 280.052 339.258C309.959 349.346 340.917 359.768 401.757 359.768C462.596 359.768 493.554 349.346 523.461 339.258C553.343 329.195 584.224 318.799 644.987 318.799C705.75 318.799 736.63 329.195 766.512 339.258C796.446 349.346 827.378 359.768 888.243 359.768C949.108 359.768 980.04 349.346 1009.97 339.258C1039.86 329.195 1070.74 318.799 1131.5 318.799C1192.26 318.799 1223.14 329.195 1253.02 339.258C1282.93 349.346 1313.89 359.768 1374.73 359.768C1435.57 359.768 1466.53 349.346 1496.43 339.258C1524.93 329.655 1554.41 319.746 1609.84 318.85C1609.84 318.645 1609.84 318.414 1609.82 318.21C1554.3 319.106 1524.78 329.015 1496.23 338.643C1466.35 348.706 1435.47 359.102 1374.7 359.102C1313.94 359.102 1283.06 348.706 1253.18 338.643C1223.24 328.554 1192.31 318.133 1131.45 318.133C1070.58 318.133 1039.65 328.554 1009.72 338.643C979.835 348.706 948.954 359.102 888.192 359.102C827.429 359.102 796.548 348.706 766.666 338.643C736.733 328.554 705.801 318.133 644.936 318.133C584.07 318.133 553.139 328.554 523.205 338.643C493.323 348.706 462.443 359.102 401.68 359.102C340.917 359.102 310.036 348.706 280.154 338.643C250.221 328.554 219.289 318.133 158.424 318.133C97.5586 318.133 66.6266 328.554 36.6934 338.643C30.5992 340.692 24.4537 342.766 18.0267 344.763C17.8986 345.019 17.7706 345.275 17.6426 345.557C24.2745 343.508 30.6248 341.383 36.8982 339.258H37.0006Z" fill="#074667"/>
<path d="M37.0002 352.062C66.8823 341.999 97.763 331.603 158.526 331.603C219.289 331.603 250.169 341.999 280.051 352.062C309.959 362.151 340.917 372.573 401.756 372.573C462.596 372.573 493.553 362.151 523.461 352.062C553.343 341.999 584.224 331.603 644.987 331.603C705.749 331.603 736.63 341.999 766.512 352.062C796.445 362.151 827.377 372.573 888.243 372.573C949.108 372.573 980.04 362.151 1009.97 352.062C1039.86 341.999 1070.74 331.603 1131.5 331.603C1192.26 331.603 1223.14 341.999 1253.02 352.062C1282.93 362.151 1313.89 372.573 1374.73 372.573C1435.57 372.573 1466.53 362.151 1496.43 352.062C1525.09 342.409 1554.71 332.448 1610.71 331.654C1610.71 331.45 1610.69 331.219 1610.66 331.014C1554.58 331.808 1524.93 341.794 1496.23 351.448C1466.35 361.511 1435.47 371.907 1374.7 371.907C1313.94 371.907 1283.06 361.511 1253.18 351.448C1223.24 341.359 1192.31 330.938 1131.45 330.938C1070.58 330.938 1039.65 341.359 1009.72 351.448C979.835 361.511 948.954 371.907 888.191 371.907C827.428 371.907 796.548 361.511 766.666 351.448C736.732 341.359 705.801 330.938 644.935 330.938C584.07 330.938 553.138 341.359 523.205 351.448C493.323 361.511 462.442 371.907 401.679 371.907C340.917 371.907 310.036 361.511 280.154 351.448C250.221 341.359 219.289 330.938 158.423 330.938C97.5582 330.938 66.6262 341.359 36.693 351.448C28.6783 354.136 20.6125 356.851 11.9064 359.411C11.804 359.667 11.7272 359.898 11.6504 360.154C20.5356 357.568 28.7551 354.802 36.8978 352.062H37.0002Z" fill="#074667"/>
<path d="M158.527 241.957C219.289 241.957 250.17 252.353 280.052 262.416C309.96 272.505 340.917 282.926 401.757 282.926C462.597 282.926 493.554 272.505 523.462 262.416C553.344 252.353 584.225 241.957 644.987 241.957C705.75 241.957 736.631 252.353 766.513 262.416C775.117 265.309 783.822 268.254 793.297 270.943C792.221 270.405 791.12 269.867 790.045 269.329C781.902 266.923 774.272 264.336 766.718 261.801C736.785 251.713 705.853 241.291 644.987 241.291C584.122 241.291 553.19 251.713 523.257 261.801C493.375 271.864 462.494 282.26 401.731 282.26C340.969 282.26 310.088 271.864 280.206 261.801C250.273 251.713 219.341 241.291 158.475 241.291C134.175 241.291 114.664 242.955 98.0711 245.593C97.7382 245.874 97.3798 246.131 97.0469 246.412C113.844 243.672 133.663 241.957 158.45 241.957H158.527Z" fill="#074667"/>
<path d="M158.527 267.562C219.29 267.562 250.17 277.958 280.052 288.021C309.96 298.11 340.918 308.532 401.757 308.532C462.597 308.532 493.554 298.11 523.462 288.021C553.344 277.958 584.225 267.562 644.988 267.562C705.75 267.562 736.631 277.958 766.513 288.021C790.711 296.164 815.6 304.537 856.415 307.456C856.031 307.2 855.622 306.97 855.238 306.714C815.216 303.743 790.634 295.473 766.718 287.407C736.785 277.318 705.853 266.896 644.988 266.896C584.122 266.896 553.19 277.318 523.257 287.407C493.375 297.47 462.494 307.866 401.732 307.866C340.969 307.866 310.088 297.47 280.206 287.407C250.273 277.318 219.341 266.896 158.476 266.896C114.792 266.896 86.5231 272.274 62.9657 279.034C62.7096 279.341 62.4279 279.623 62.1719 279.93C85.8573 273.042 114.254 267.537 158.476 267.537L158.527 267.562Z" fill="#074667"/>
<path d="M158.526 216.351C219.289 216.351 250.17 226.747 280.052 236.81C309.96 246.899 340.917 257.321 401.757 257.321C462.596 257.321 493.554 246.899 523.462 236.81C526.176 235.889 528.916 234.967 531.681 234.045C530.913 234.071 530.145 234.122 529.351 234.147C527.302 234.839 525.28 235.505 523.231 236.196C493.349 246.259 462.468 256.655 401.705 256.655C340.943 256.655 310.062 246.259 280.18 236.196C250.247 226.107 219.315 215.686 158.45 215.686C152.816 215.686 147.439 215.788 142.267 215.942C141.831 216.172 141.422 216.402 140.986 216.633C146.517 216.428 152.33 216.326 158.424 216.326L158.526 216.351Z" fill="#074667"/>
<path d="M158.527 229.154C219.29 229.154 250.17 239.55 280.053 249.613C309.96 259.702 340.918 270.123 401.757 270.123C462.597 270.123 493.554 259.702 523.462 249.613C543.921 242.725 564.841 235.683 595.517 231.919C593.725 231.945 591.907 231.945 590.114 231.996C562.255 235.888 542.538 242.52 523.257 249.024C493.375 259.087 462.494 269.483 401.732 269.483C340.969 269.483 310.088 259.087 280.206 249.024C250.273 238.935 219.341 228.514 158.476 228.514C143.599 228.514 130.54 229.128 118.812 230.229C118.428 230.485 118.07 230.716 117.686 230.972C129.695 229.82 143.112 229.154 158.476 229.154H158.527Z" fill="#074667"/>
<path d="M158.526 254.76C219.288 254.76 250.169 265.155 280.051 275.219C309.959 285.307 340.916 295.729 401.756 295.729C462.596 295.729 493.553 285.307 523.461 275.219C553.343 265.155 584.224 254.76 644.986 254.76C705.749 254.76 736.63 265.155 766.512 275.219C785.255 281.543 804.409 287.996 831.09 291.914C830.603 291.632 830.091 291.325 829.605 291.043C803.794 287.1 785.051 280.801 766.717 274.604C736.783 264.515 705.852 254.094 644.986 254.094C584.121 254.094 553.189 264.515 523.256 274.604C493.374 284.667 462.493 295.063 401.73 295.063C340.968 295.063 310.087 284.667 280.205 274.604C250.271 264.515 219.34 254.094 158.474 254.094C124.495 254.094 99.8625 257.346 79.5058 261.955C79.1985 262.236 78.8913 262.518 78.584 262.825C99.0943 258.088 123.958 254.734 158.449 254.734L158.526 254.76Z" fill="#074667"/>
<path d="M37.0014 364.863C66.8835 354.8 97.7642 344.404 158.527 344.404C219.29 344.404 250.17 354.8 280.053 364.863C309.96 374.952 340.918 385.373 401.757 385.373C462.597 385.373 493.554 374.952 523.462 364.863C553.344 354.8 584.225 344.404 644.988 344.404C705.75 344.404 736.631 354.8 766.513 364.863C796.447 374.952 827.378 385.373 888.244 385.373C949.109 385.373 980.041 374.952 1009.97 364.863C1039.86 354.8 1070.74 344.404 1131.5 344.404C1192.26 344.404 1223.14 354.8 1253.03 364.863C1282.93 374.952 1313.89 385.373 1374.73 385.373C1435.57 385.373 1466.53 374.952 1496.43 364.863C1525.32 355.133 1555.15 345.095 1611.99 344.43C1611.97 344.225 1611.94 343.994 1611.92 343.79C1555.02 344.455 1525.16 354.518 1496.23 364.249C1466.35 374.312 1435.47 384.708 1374.7 384.708C1313.94 384.708 1283.06 374.312 1253.18 364.249C1223.25 354.16 1192.31 343.738 1131.45 343.738C1070.58 343.738 1039.65 354.16 1009.72 364.249C979.836 374.312 948.955 384.708 888.192 384.708C827.43 384.708 796.549 374.312 766.667 364.249C736.734 354.16 705.802 343.738 644.937 343.738C584.071 343.738 553.139 354.16 523.206 364.249C493.324 374.312 462.443 384.708 401.681 384.708C340.918 384.708 310.037 374.312 280.155 364.249C250.222 354.16 219.29 343.738 158.425 343.738C97.5594 343.738 66.6274 354.16 36.6942 364.249C27.2968 367.424 17.797 370.624 7.2986 373.518C7.22178 373.748 7.17057 374.004 7.09375 374.235C17.7458 371.316 27.3736 368.064 36.899 364.863H37.0014Z" fill="#074667"/>
<path d="M36.9999 403.273C66.882 393.21 97.7627 382.814 158.525 382.814C219.288 382.814 250.169 393.21 280.051 403.273C309.959 413.362 340.916 423.783 401.756 423.783C462.595 423.783 493.553 413.362 523.461 403.273C553.343 393.21 584.223 382.814 644.986 382.814C705.749 382.814 736.63 393.21 766.512 403.273C796.445 413.362 827.377 423.783 888.242 423.783C949.107 423.783 980.039 413.362 1009.97 403.273C1039.85 393.21 1070.74 382.814 1131.5 382.814C1192.26 382.814 1223.14 393.21 1253.02 403.273C1282.93 413.362 1313.89 423.783 1374.73 423.783C1435.57 423.783 1466.53 413.362 1496.43 403.273C1526.32 393.21 1557.2 382.814 1617.96 382.814C1618.19 382.814 1618.45 382.814 1618.68 382.814C1618.62 382.609 1618.57 382.379 1618.52 382.174C1618.32 382.174 1618.14 382.174 1617.96 382.174C1557.09 382.174 1526.16 392.595 1496.23 402.684C1466.35 412.747 1435.47 423.143 1374.7 423.143C1313.94 423.143 1283.06 412.747 1253.18 402.684C1223.24 392.595 1192.31 382.174 1131.45 382.174C1070.58 382.174 1039.65 392.595 1009.72 402.684C979.834 412.747 948.954 423.143 888.191 423.143C827.428 423.143 796.547 412.747 766.665 402.684C736.732 392.595 705.8 382.174 644.935 382.174C584.07 382.174 553.138 392.595 523.205 402.684C493.322 412.747 462.442 423.143 401.679 423.143C340.916 423.143 310.035 412.747 280.153 402.684C250.22 392.595 219.288 382.174 158.423 382.174C97.5578 382.174 66.6259 392.595 36.6926 402.684C25.2724 406.525 13.6985 410.417 0.357852 413.771C0.357852 414.002 0.332247 414.207 0.306641 414.437C13.7497 411.083 25.4004 407.165 36.8975 403.273H36.9999Z" fill="#074667"/>
<path d="M37.0008 492.894C66.8829 482.831 97.7636 472.435 158.526 472.435C219.289 472.435 250.17 482.831 280.052 492.894C309.96 502.983 340.917 513.404 401.757 513.404C462.596 513.404 493.554 502.983 523.462 492.894C553.344 482.831 584.224 472.435 644.987 472.435C705.75 472.435 736.631 482.831 766.513 492.894C796.446 502.983 827.378 513.404 888.243 513.404C949.108 513.404 980.04 502.983 1009.97 492.894C1039.86 482.831 1070.74 472.435 1131.5 472.435C1192.26 472.435 1223.14 482.831 1253.02 492.894C1282.93 502.983 1313.89 513.404 1374.73 513.404C1435.57 513.404 1466.53 502.983 1496.43 492.894C1526.32 482.831 1557.2 472.435 1617.96 472.435C1630.56 472.435 1641.85 472.896 1652.14 473.69C1652.04 473.459 1651.91 473.254 1651.81 473.024C1641.62 472.256 1630.43 471.795 1617.99 471.795C1557.12 471.795 1526.19 482.217 1496.25 492.305C1466.37 502.368 1435.49 512.764 1374.73 512.764C1313.97 512.764 1283.09 502.368 1253.2 492.305C1223.27 482.217 1192.34 471.795 1131.47 471.795C1070.61 471.795 1039.68 482.217 1009.74 492.305C979.861 502.368 948.98 512.764 888.217 512.764C827.455 512.764 796.574 502.368 766.692 492.305C736.759 482.217 705.827 471.795 644.961 471.795C584.096 471.795 553.164 482.217 523.231 492.305C493.349 502.368 462.468 512.764 401.706 512.764C340.943 512.764 310.062 502.368 280.18 492.305C250.247 482.217 219.315 471.795 158.45 471.795C97.5844 471.795 66.6525 482.217 36.7192 492.305C30.497 494.405 24.1979 496.505 17.6172 498.553C17.7196 498.732 17.822 498.937 17.9245 499.142C24.4796 497.119 30.7274 495.019 36.924 492.92L37.0008 492.894Z" fill="#074667"/>
<path d="M37.0015 505.697C66.8836 495.634 97.7643 485.238 158.527 485.238C219.29 485.238 250.171 495.634 280.053 505.697C309.96 515.786 340.918 526.207 401.757 526.207C462.597 526.207 493.554 515.786 523.462 505.697C553.344 495.634 584.225 485.238 644.988 485.238C705.75 485.238 736.631 495.634 766.513 505.697C796.447 515.786 827.378 526.207 888.244 526.207C949.109 526.207 980.041 515.786 1009.97 505.697C1039.86 495.634 1070.74 485.238 1131.5 485.238C1192.26 485.238 1223.14 495.634 1253.03 505.697C1282.93 515.786 1313.89 526.207 1374.73 526.207C1435.57 526.207 1466.53 515.786 1496.43 505.697C1526.32 495.634 1557.2 485.238 1617.96 485.238C1633.43 485.238 1646.95 485.904 1659.01 487.082C1658.88 486.851 1658.78 486.621 1658.65 486.39C1646.66 485.238 1633.25 484.572 1617.96 484.572C1557.1 484.572 1526.16 494.994 1496.23 505.083C1466.35 515.146 1435.47 525.542 1374.7 525.542C1313.94 525.542 1283.06 515.146 1253.18 505.083C1223.25 494.994 1192.31 484.572 1131.45 484.572C1070.58 484.572 1039.65 494.994 1009.72 505.083C979.836 515.146 948.955 525.542 888.192 525.542C827.43 525.542 796.549 515.146 766.667 505.083C736.734 494.994 705.802 484.572 644.936 484.572C584.071 484.572 553.139 494.994 523.206 505.083C493.324 515.146 462.443 525.542 401.681 525.542C340.918 525.542 310.037 515.146 280.155 505.083C250.222 494.994 219.29 484.572 158.425 484.572C97.5594 484.572 66.6275 494.994 36.6942 505.083C32.5205 506.491 28.3211 507.899 24.0449 509.282C24.173 509.461 24.301 509.64 24.4034 509.845C28.6284 508.463 32.7765 507.08 36.8991 505.697H37.0015Z" fill="#074667"/>
<path d="M37.0013 480.091C66.8834 470.028 97.7641 459.632 158.527 459.632C219.29 459.632 250.17 470.028 280.052 480.091C309.96 490.18 340.918 500.602 401.757 500.602C462.597 500.602 493.554 490.18 523.462 480.091C553.344 470.028 584.225 459.632 644.988 459.632C705.75 459.632 736.631 470.028 766.513 480.091C796.446 490.18 827.378 500.602 888.243 500.602C949.109 500.602 980.041 490.18 1009.97 480.091C1039.86 470.028 1070.74 459.632 1131.5 459.632C1192.26 459.632 1223.14 470.028 1253.02 480.091C1282.93 490.18 1313.89 500.602 1374.73 500.602C1435.57 500.602 1466.53 490.18 1496.43 480.091C1526.32 470.028 1557.2 459.632 1617.96 459.632C1628.02 459.632 1637.24 459.914 1645.77 460.452C1645.67 460.221 1645.56 460.016 1645.46 459.786C1637.01 459.274 1627.87 458.992 1617.96 458.992C1557.09 458.992 1526.16 469.414 1496.23 479.502C1466.35 489.566 1435.47 499.962 1374.7 499.962C1313.94 499.962 1283.06 489.566 1253.18 479.502C1223.25 469.414 1192.31 458.992 1131.45 458.992C1070.58 458.992 1039.65 469.414 1009.72 479.502C979.836 489.566 948.955 499.962 888.192 499.962C827.429 499.962 796.549 489.566 766.667 479.502C736.733 469.414 705.802 458.992 644.936 458.992C584.071 458.992 553.139 469.414 523.206 479.502C493.324 489.566 462.443 499.962 401.68 499.962C340.918 499.962 310.037 489.566 280.155 479.502C250.222 469.414 219.29 458.992 158.424 458.992C97.5593 458.992 66.6274 469.414 36.6941 479.502C28.7819 482.166 20.7928 484.854 12.2148 487.364C12.2917 487.568 12.3685 487.773 12.4709 487.952C21.0489 485.443 29.0123 482.754 36.9245 480.091H37.0013Z" fill="#074667"/>
<path d="M37.0008 467.289C66.8829 457.226 97.7636 446.83 158.526 446.83C219.289 446.83 250.17 457.226 280.052 467.289C309.96 477.378 340.917 487.799 401.757 487.799C462.596 487.799 493.554 477.378 523.462 467.289C553.344 457.226 584.224 446.83 644.987 446.83C705.75 446.83 736.631 457.226 766.513 467.289C796.446 477.378 827.378 487.799 888.243 487.799C949.108 487.799 980.04 477.378 1009.97 467.289C1039.86 457.226 1070.74 446.83 1131.5 446.83C1192.26 446.83 1223.14 457.226 1253.02 467.289C1282.93 477.378 1313.89 487.799 1374.73 487.799C1435.57 487.799 1466.53 477.378 1496.43 467.289C1526.32 457.226 1557.2 446.83 1617.96 446.83C1625.77 446.83 1633.07 447.009 1639.96 447.316C1639.85 447.086 1639.78 446.881 1639.67 446.651C1632.89 446.343 1625.67 446.164 1617.96 446.164C1557.09 446.164 1526.16 456.586 1496.23 466.674C1466.35 476.738 1435.47 487.133 1374.7 487.133C1313.94 487.133 1283.06 476.738 1253.18 466.674C1223.24 456.586 1192.31 446.164 1131.45 446.164C1070.58 446.164 1039.65 456.586 1009.72 466.674C979.835 476.738 948.955 487.133 888.192 487.133C827.429 487.133 796.548 476.738 766.666 466.674C736.733 456.586 705.801 446.164 644.936 446.164C584.071 446.164 553.139 456.586 523.206 466.674C493.323 476.738 462.443 487.133 401.68 487.133C340.917 487.133 310.036 476.738 280.154 466.674C250.221 456.586 219.289 446.164 158.424 446.164C97.5588 446.164 66.6269 456.586 36.6936 466.674C27.4754 469.773 18.1293 472.922 7.86133 475.79C7.93815 475.995 8.01496 476.2 8.06618 476.405C18.3341 473.537 27.6547 470.413 36.8984 467.289H37.0008Z" fill="#074667"/>
<path d="M37.0005 518.5C66.8826 508.437 97.7633 498.041 158.526 498.041C219.289 498.041 250.17 508.437 280.052 518.5C309.959 528.589 340.917 539.01 401.756 539.01C462.596 539.01 493.554 528.589 523.461 518.5C553.343 508.437 584.224 498.041 644.987 498.041C705.75 498.041 736.63 508.437 766.512 518.5C796.446 528.589 827.378 539.01 888.243 539.01C949.108 539.01 980.04 528.589 1009.97 518.5C1039.86 508.437 1070.74 498.041 1131.5 498.041C1192.26 498.041 1223.14 508.437 1253.02 518.5C1282.93 528.589 1313.89 539.01 1374.73 539.01C1435.57 539.01 1466.53 528.589 1496.43 518.5C1526.32 508.437 1557.2 498.041 1617.96 498.041C1636.68 498.041 1652.53 499.039 1666.43 500.678C1666.3 500.448 1666.18 500.217 1666.05 499.987C1652.25 498.348 1636.5 497.375 1617.96 497.375C1557.09 497.375 1526.16 507.797 1496.23 517.885C1466.35 527.948 1435.47 538.344 1374.7 538.344C1313.94 538.344 1283.06 527.948 1253.18 517.885C1223.24 507.797 1192.31 497.375 1131.45 497.375C1070.58 497.375 1039.65 507.797 1009.72 517.885C979.835 527.948 948.954 538.344 888.192 538.344C827.429 538.344 796.548 527.948 766.666 517.885C736.733 507.797 705.801 497.375 644.936 497.375C584.07 497.375 553.138 507.797 523.205 517.885C493.323 527.948 462.442 538.344 401.68 538.344C340.917 538.344 310.036 527.948 280.154 517.885C250.221 507.797 219.289 497.375 158.424 497.375C97.5584 497.375 66.6265 507.797 36.6932 517.885C35.0032 518.449 33.3133 519.012 31.5977 519.601C31.7513 519.78 31.8793 519.959 32.033 520.139C33.6461 519.601 35.2849 519.063 36.8981 518.5H37.0005Z" fill="#074667"/>
<path d="M37.0009 441.683C66.8829 431.62 97.7636 421.224 158.526 421.224C219.289 421.224 250.17 431.62 280.052 441.683C309.96 451.772 340.917 462.193 401.757 462.193C462.596 462.193 493.554 451.772 523.462 441.683C553.344 431.62 584.224 421.224 644.987 421.224C705.75 421.224 736.631 431.62 766.513 441.683C796.446 451.772 827.378 462.193 888.243 462.193C949.108 462.193 980.04 451.772 1009.97 441.683C1039.86 431.62 1070.74 421.224 1131.5 421.224C1192.26 421.224 1223.14 431.62 1253.02 441.683C1282.93 451.772 1313.89 462.193 1374.73 462.193C1435.57 462.193 1466.53 451.772 1496.43 441.683C1526.32 431.62 1557.2 421.224 1617.96 421.224C1622.06 421.224 1626.03 421.275 1629.87 421.378C1629.79 421.173 1629.71 420.942 1629.64 420.737C1625.87 420.661 1621.98 420.609 1617.96 420.609C1557.09 420.609 1526.16 431.031 1496.23 441.12C1466.35 451.183 1435.47 461.579 1374.7 461.579C1313.94 461.579 1283.06 451.183 1253.18 441.12C1223.24 431.031 1192.31 420.609 1131.45 420.609C1070.58 420.609 1039.65 431.031 1009.72 441.12C979.835 451.183 948.955 461.579 888.192 461.579C827.429 461.579 796.548 451.183 766.666 441.12C736.733 431.031 705.801 420.609 644.936 420.609C584.071 420.609 553.139 431.031 523.206 441.12C493.323 451.183 462.443 461.579 401.68 461.579C340.917 461.579 310.036 451.183 280.154 441.12C250.221 431.031 219.289 420.609 158.424 420.609C97.5588 420.609 66.6269 431.031 36.6936 441.12C25.7599 444.807 14.6725 448.52 2.04883 451.772C2.07443 451.977 2.10004 452.207 2.15125 452.412C14.8262 449.16 25.9391 445.421 36.8984 441.734L37.0009 441.683Z" fill="#074667"/>
<path d="M37.0005 416.076C66.8826 406.013 97.7633 395.617 158.526 395.617C219.289 395.617 250.17 406.013 280.052 416.076C309.959 426.165 340.917 436.586 401.756 436.586C462.596 436.586 493.554 426.165 523.461 416.076C553.343 406.013 584.224 395.617 644.987 395.617C705.75 395.617 736.63 406.013 766.512 416.076C796.446 426.165 827.378 436.586 888.243 436.586C949.108 436.586 980.04 426.165 1009.97 416.076C1039.86 406.013 1070.74 395.617 1131.5 395.617C1192.26 395.617 1223.14 406.013 1253.02 416.076C1282.93 426.165 1313.89 436.586 1374.73 436.586C1435.57 436.586 1466.53 426.165 1496.43 416.076C1526.32 406.013 1557.2 395.617 1617.96 395.617C1619.29 395.617 1620.57 395.617 1621.88 395.617C1621.83 395.412 1621.75 395.181 1621.7 394.977C1620.44 394.977 1619.21 394.977 1617.96 394.977C1557.09 394.977 1526.16 405.398 1496.23 415.487C1466.35 425.55 1435.47 435.946 1374.7 435.946C1313.94 435.946 1283.06 425.55 1253.18 415.487C1223.24 405.398 1192.31 394.977 1131.45 394.977C1070.58 394.977 1039.65 405.398 1009.72 415.487C979.835 425.55 948.954 435.946 888.192 435.946C827.429 435.946 796.548 425.55 766.666 415.487C736.733 405.398 705.801 394.977 644.936 394.977C584.07 394.977 553.138 405.398 523.205 415.487C493.323 425.55 462.442 435.946 401.68 435.946C340.917 435.946 310.036 425.55 280.154 415.487C250.221 405.398 219.289 394.977 158.424 394.977C97.5584 394.977 66.6265 405.398 36.6932 415.487C25.1706 419.379 13.4943 423.297 0 426.677C0 426.907 0 427.112 0 427.342C13.5711 423.962 25.2986 420.019 36.8981 416.101L37.0005 416.076Z" fill="#074667"/>
<path d="M37.0017 454.484C66.8838 444.421 97.7645 434.025 158.527 434.025C219.29 434.025 250.171 444.421 280.053 454.484C309.96 464.573 340.918 474.994 401.758 474.994C462.597 474.994 493.555 464.573 523.462 454.484C553.344 444.421 584.225 434.025 644.988 434.025C705.751 434.025 736.631 444.421 766.513 454.484C796.447 464.573 827.379 474.994 888.244 474.994C949.109 474.994 980.041 464.573 1009.97 454.484C1039.86 444.421 1070.74 434.025 1131.5 434.025C1192.26 434.025 1223.14 444.421 1253.03 454.484C1282.93 464.573 1313.89 474.994 1374.73 474.994C1435.57 474.994 1466.53 464.573 1496.44 454.484C1526.32 444.421 1557.2 434.025 1617.96 434.025C1623.8 434.025 1629.36 434.127 1634.66 434.307C1634.58 434.102 1634.48 433.871 1634.4 433.666C1629.18 433.487 1623.7 433.385 1617.96 433.385C1557.1 433.385 1526.16 443.806 1496.23 453.895C1466.35 463.958 1435.47 474.354 1374.7 474.354C1313.94 474.354 1283.06 463.958 1253.18 453.895C1223.25 443.806 1192.31 433.385 1131.45 433.385C1070.58 433.385 1039.65 443.806 1009.72 453.895C979.836 463.958 948.955 474.354 888.193 474.354C827.43 474.354 796.549 463.958 766.667 453.895C736.734 443.806 705.802 433.385 644.937 433.385C584.072 433.385 553.14 443.806 523.206 453.895C493.324 463.958 462.444 474.354 401.681 474.354C340.918 474.354 310.037 463.958 280.155 453.895C250.222 443.806 219.29 433.385 158.425 433.385C97.5596 433.385 66.6277 443.806 36.6944 453.895C26.4777 457.352 16.1329 460.834 4.50781 463.907C4.55902 464.112 4.61024 464.317 4.66145 464.521C16.3121 461.423 26.6569 457.941 36.8993 454.484H37.0017Z" fill="#074667"/>
<path d="M36.9995 390.471C66.8816 380.407 97.7623 370.011 158.525 370.011C219.288 370.011 250.169 380.407 280.051 390.471C309.958 400.559 340.916 410.981 401.755 410.981C462.595 410.981 493.553 400.559 523.46 390.471C553.342 380.407 584.223 370.011 644.986 370.011C705.749 370.011 736.629 380.407 766.511 390.471C796.445 400.559 827.377 410.981 888.242 410.981C949.107 410.981 980.039 400.559 1009.97 390.471C1039.85 380.407 1070.73 370.011 1131.5 370.011C1192.26 370.011 1223.14 380.407 1253.02 390.471C1282.93 400.559 1313.89 410.981 1374.73 410.981C1435.57 410.981 1466.53 400.559 1496.43 390.471C1525.98 380.51 1556.53 370.242 1615.96 370.011C1615.91 369.807 1615.88 369.576 1615.83 369.371C1556.38 369.602 1525.78 379.895 1496.2 389.856C1466.32 399.919 1435.44 410.315 1374.68 410.315C1313.91 410.315 1283.03 399.919 1253.15 389.856C1223.22 379.767 1192.29 369.346 1131.42 369.346C1070.56 369.346 1039.62 379.767 1009.69 389.856C979.808 399.919 948.928 410.315 888.165 410.315C827.402 410.315 796.521 399.919 766.639 389.856C736.706 379.767 705.774 369.346 644.909 369.346C584.044 369.346 553.112 379.767 523.179 389.856C493.296 399.919 462.416 410.315 401.653 410.315C340.89 410.315 310.009 399.919 280.127 389.856C250.194 379.767 219.262 369.346 158.397 369.346C97.5318 369.346 66.5999 379.767 36.6666 389.856C25.6049 393.569 14.4151 397.359 1.61219 400.611C1.58658 400.841 1.56098 401.071 1.50977 401.302C14.4151 397.999 25.7073 394.209 36.8459 390.471H36.9995Z" fill="#074667"/>
<path d="M36.9999 377.668C66.882 367.604 97.7627 357.209 158.525 357.209C219.288 357.209 250.169 367.604 280.051 377.668C309.959 387.756 340.916 398.178 401.756 398.178C462.595 398.178 493.553 387.756 523.461 377.668C553.343 367.604 584.223 357.209 644.986 357.209C705.749 357.209 736.63 367.604 766.512 377.668C796.445 387.756 827.377 398.178 888.242 398.178C949.107 398.178 980.039 387.756 1009.97 377.668C1039.85 367.604 1070.74 357.209 1131.5 357.209C1192.26 357.209 1223.14 367.604 1253.02 377.668C1282.93 387.756 1313.89 398.178 1374.73 398.178C1435.57 398.178 1466.53 387.756 1496.43 377.668C1525.6 367.835 1555.76 357.695 1613.73 357.234C1613.71 357.029 1613.68 356.799 1613.63 356.594C1555.61 357.08 1525.42 367.246 1496.23 377.079C1466.35 387.142 1435.47 397.538 1374.7 397.538C1313.94 397.538 1283.06 387.142 1253.18 377.079C1223.24 366.99 1192.31 356.568 1131.45 356.568C1070.58 356.568 1039.65 366.99 1009.72 377.079C979.834 387.142 948.954 397.538 888.191 397.538C827.428 397.538 796.547 387.142 766.665 377.079C736.732 366.99 705.8 356.568 644.935 356.568C584.07 356.568 553.138 366.99 523.205 377.079C493.322 387.142 462.442 397.538 401.679 397.538C340.916 397.538 310.036 387.142 280.153 377.079C250.22 366.99 219.288 356.568 158.423 356.568C97.5578 356.568 66.6259 366.99 36.6926 377.079C26.2966 380.587 15.7726 384.12 3.9427 387.244C3.89149 387.475 3.84027 387.705 3.78906 387.936C15.7726 384.786 26.3991 381.201 36.8975 377.668H36.9999Z" fill="#074667"/>
<path d="M36.9999 428.879C66.882 418.815 97.7627 408.419 158.525 408.419C219.288 408.419 250.169 418.815 280.051 428.879C309.959 438.967 340.916 449.389 401.756 449.389C462.595 449.389 493.553 438.967 523.461 428.879C553.343 418.815 584.223 408.419 644.986 408.419C705.749 408.419 736.63 418.815 766.512 428.879C796.445 438.967 827.377 449.389 888.242 449.389C949.107 449.389 980.039 438.967 1009.97 428.879C1039.85 418.815 1070.74 408.419 1131.5 408.419C1192.26 408.419 1223.14 418.815 1253.02 428.879C1282.93 438.967 1313.89 449.389 1374.73 449.389C1435.57 449.389 1466.53 438.967 1496.43 428.879C1526.32 418.815 1557.2 408.419 1617.96 408.419C1620.57 408.419 1623.11 408.445 1625.61 408.471C1625.54 408.266 1625.49 408.035 1625.41 407.83C1622.98 407.805 1620.49 407.779 1617.96 407.779C1557.09 407.779 1526.16 418.201 1496.23 428.29C1466.35 438.353 1435.47 448.749 1374.7 448.749C1313.94 448.749 1283.06 438.353 1253.18 428.29C1223.24 418.201 1192.31 407.779 1131.45 407.779C1070.58 407.779 1039.65 418.201 1009.72 428.29C979.834 438.353 948.954 448.749 888.191 448.749C827.428 448.749 796.547 438.353 766.665 428.29C736.732 418.201 705.8 407.779 644.935 407.779C584.07 407.779 553.138 418.201 523.205 428.29C493.322 438.353 462.442 448.749 401.679 448.749C340.916 448.749 310.036 438.353 280.153 428.29C250.22 418.201 219.288 407.779 158.423 407.779C97.5578 407.779 66.6259 418.201 36.6926 428.29C25.3236 432.13 13.801 435.997 0.537109 439.326C0.537109 439.531 0.588321 439.761 0.613927 439.966C13.929 436.612 25.4772 432.719 36.8975 428.879H36.9999Z" fill="#074667"/>
<path d="M280.051 198.427C298.436 204.623 317.23 210.948 343.092 214.891C342.35 214.584 341.607 214.226 340.89 213.893C316.257 209.924 298.077 203.804 280.255 197.812C268.81 193.946 257.184 190.054 243.793 186.699C243.024 186.725 242.282 186.75 241.514 186.802C255.776 190.258 267.99 194.381 280.025 198.427H280.051Z" fill="#074667"/>
<path d="M280.052 211.229C309.959 221.317 340.917 231.739 401.756 231.739C403.6 231.739 405.418 231.739 407.21 231.713C405.802 231.509 404.419 231.304 403.011 231.099C402.576 231.099 402.166 231.099 401.731 231.099C340.968 231.099 310.087 220.703 280.205 210.64C258.696 203.393 236.675 195.968 203.362 192.383C202.722 192.536 202.082 192.664 201.441 192.844C235.702 196.352 258.133 203.905 280 211.28L280.052 211.229Z" fill="#074667"/>
<path d="M401.758 244.517C438.4 244.517 464.21 240.727 485.463 235.529C484.49 235.529 483.543 235.529 482.595 235.555C461.88 240.42 436.787 243.877 401.758 243.877C340.995 243.877 310.114 233.481 280.232 223.417C252.219 213.969 223.31 204.239 169.794 203.035C169.282 203.24 168.795 203.445 168.283 203.65C222.67 204.7 251.81 214.507 280.027 224.032C309.935 234.121 340.893 244.542 401.732 244.542L401.758 244.517Z" fill="#074667"/>
<path d="M1618.04 445.523C1557.07 445.523 1526.06 455.971 1496.1 466.059C1466.27 476.097 1435.44 486.493 1374.78 486.493C1314.12 486.493 1283.29 476.097 1253.46 466.059C1223.47 455.971 1192.49 445.523 1131.52 445.523C1070.56 445.523 1039.55 455.971 1009.59 466.059C979.758 476.097 948.928 486.493 888.268 486.493C827.608 486.493 796.778 476.097 766.947 466.059C736.963 455.971 705.98 445.523 645.012 445.523C584.045 445.523 553.036 455.971 523.077 466.059C493.246 476.097 462.417 486.493 401.756 486.493C341.096 486.493 310.266 476.097 280.436 466.059C250.477 455.971 219.468 445.523 158.5 445.523C103.268 445.523 72.6437 454.101 45.0918 463.217C45.1942 463.857 45.3223 464.497 45.4247 465.138C72.8998 456.047 103.396 447.47 158.5 447.47C219.161 447.47 249.99 457.865 279.821 467.903C309.78 477.992 340.789 488.439 401.731 488.439C462.698 488.439 493.681 477.992 523.64 467.903C553.471 457.865 584.301 447.47 644.961 447.47C705.621 447.47 736.451 457.865 766.282 467.903C796.266 477.992 827.249 488.439 888.217 488.439C949.185 488.439 980.193 477.992 1010.15 467.903C1039.98 457.865 1070.81 447.47 1131.47 447.47C1192.13 447.47 1222.96 457.865 1252.79 467.903C1282.75 477.992 1313.76 488.439 1374.7 488.439C1435.67 488.439 1466.65 477.992 1496.61 467.903C1526.44 457.865 1557.27 447.47 1617.93 447.47C1618.27 447.47 1618.6 447.47 1618.93 447.47C1618.7 446.829 1618.47 446.189 1618.27 445.549C1618.16 445.549 1618.06 445.549 1617.96 445.549L1618.04 445.523Z" fill="#074667"/>
<path d="M1618.04 496.734C1557.07 496.734 1526.06 507.182 1496.1 517.27C1466.27 527.308 1435.44 537.704 1374.78 537.704C1314.12 537.704 1283.29 527.308 1253.46 517.27C1223.48 507.182 1192.49 496.734 1131.52 496.734C1070.56 496.734 1039.55 507.182 1009.59 517.27C979.759 527.308 948.929 537.704 888.269 537.704C827.608 537.704 796.779 527.308 766.948 517.27C736.964 507.182 705.98 496.734 645.013 496.734C584.045 496.734 553.036 507.182 523.078 517.27C493.247 527.308 462.417 537.704 401.757 537.704C341.096 537.704 310.267 527.308 280.436 517.27C250.477 507.182 219.468 496.734 158.501 496.734C114.92 496.734 86.6763 502.06 63.1445 508.795C63.5542 509.358 63.9383 509.921 64.348 510.459C87.6238 503.853 115.585 498.655 158.501 498.655C219.161 498.655 249.991 509.051 279.822 519.088C309.78 529.177 340.789 539.624 401.731 539.624C462.699 539.624 493.682 529.177 523.641 519.088C553.472 509.051 584.301 498.655 644.962 498.655C705.622 498.655 736.451 509.051 766.282 519.088C796.267 529.177 827.25 539.624 888.218 539.624C949.185 539.624 980.194 529.177 1010.15 519.088C1039.98 509.051 1070.81 498.655 1131.47 498.655C1192.13 498.655 1222.96 509.051 1252.79 519.088C1282.75 529.177 1313.76 539.624 1374.7 539.624C1435.67 539.624 1466.65 529.177 1496.61 519.088C1526.44 509.051 1557.27 498.655 1617.93 498.655C1626.64 498.655 1634.68 498.885 1642.23 499.269C1641.88 498.604 1641.54 497.938 1641.21 497.298C1633.96 496.939 1626.23 496.734 1617.93 496.734H1618.04Z" fill="#074667"/>
<path d="M1618.04 483.932C1557.07 483.932 1526.06 494.379 1496.1 504.468C1466.27 514.505 1435.44 524.901 1374.78 524.901C1314.12 524.901 1283.29 514.505 1253.46 504.468C1223.48 494.379 1192.49 483.932 1131.52 483.932C1070.56 483.932 1039.55 494.379 1009.59 504.468C979.759 514.505 948.929 524.901 888.269 524.901C827.608 524.901 796.779 514.505 766.948 504.468C736.964 494.379 705.98 483.932 645.013 483.932C584.045 483.932 553.036 494.379 523.078 504.468C493.247 514.505 462.417 524.901 401.757 524.901C341.096 524.901 310.267 514.505 280.436 504.468C250.477 494.379 219.468 483.932 158.501 483.932C110.695 483.932 81.2991 490.359 56.4102 497.989C56.7174 498.578 57.0503 499.142 57.3832 499.705C82.0673 492.151 111.232 485.852 158.526 485.852C219.187 485.852 250.016 496.248 279.847 506.286C309.806 516.375 340.815 526.822 401.757 526.822C462.724 526.822 493.708 516.375 523.666 506.286C553.497 496.248 584.327 485.852 644.987 485.852C705.648 485.852 736.477 496.248 766.308 506.286C796.292 516.375 827.276 526.822 888.243 526.822C949.211 526.822 980.219 516.375 1010.18 506.286C1040.01 496.248 1070.84 485.852 1131.5 485.852C1192.16 485.852 1222.99 496.248 1252.82 506.286C1282.78 516.375 1313.79 526.822 1374.73 526.822C1435.7 526.822 1466.68 516.375 1496.64 506.286C1526.47 496.248 1557.3 485.852 1617.96 485.852C1624.16 485.852 1630.02 485.955 1635.6 486.16C1635.27 485.494 1634.96 484.854 1634.65 484.188C1629.35 484.009 1623.8 483.906 1617.96 483.906L1618.04 483.932Z" fill="#074667"/>
<path d="M1618.04 458.326C1557.07 458.326 1526.06 468.774 1496.1 478.862C1466.27 488.9 1435.44 499.296 1374.78 499.296C1314.12 499.296 1283.29 488.9 1253.46 478.862C1223.48 468.774 1192.49 458.326 1131.52 458.326C1070.56 458.326 1039.55 468.774 1009.59 478.862C979.759 488.9 948.929 499.296 888.269 499.296C827.608 499.296 796.779 488.9 766.948 478.862C736.964 468.774 705.98 458.326 645.013 458.326C584.045 458.326 553.036 468.774 523.078 478.862C493.247 488.9 462.417 499.296 401.757 499.296C341.097 499.296 310.267 488.9 280.436 478.862C250.477 468.774 219.469 458.326 158.501 458.326C104.933 458.326 74.5136 466.392 47.5762 475.175C47.7298 475.79 47.909 476.404 48.0883 477.019C74.8977 468.261 105.164 460.221 158.501 460.221C219.161 460.221 249.991 470.617 279.822 480.655C309.78 490.743 340.789 501.191 401.731 501.191C462.699 501.191 493.682 490.743 523.641 480.655C553.472 470.617 584.301 460.221 644.962 460.221C705.622 460.221 736.451 470.617 766.282 480.655C796.267 490.743 827.25 501.191 888.218 501.191C949.185 501.191 980.194 490.743 1010.15 480.655C1039.98 470.617 1070.81 460.221 1131.47 460.221C1192.13 460.221 1222.96 470.617 1252.79 480.655C1282.75 490.743 1313.76 501.191 1374.7 501.191C1435.67 501.191 1466.65 490.743 1496.61 480.655C1526.44 470.617 1557.27 460.221 1617.93 460.221C1619.96 460.221 1621.93 460.221 1623.87 460.247C1623.62 459.607 1623.36 458.967 1623.11 458.326C1621.42 458.326 1619.7 458.301 1617.96 458.301L1618.04 458.326Z" fill="#074667"/>
<path d="M1618.04 471.129C1557.07 471.129 1526.06 481.576 1496.1 491.665C1466.27 501.703 1435.44 512.099 1374.78 512.099C1314.12 512.099 1283.29 501.703 1253.46 491.665C1223.48 481.576 1192.49 471.129 1131.52 471.129C1070.56 471.129 1039.55 481.576 1009.59 491.665C979.758 501.703 948.929 512.099 888.269 512.099C827.608 512.099 796.779 501.703 766.948 491.665C736.963 481.576 705.98 471.129 645.013 471.129C584.045 471.129 553.036 481.576 523.077 491.665C493.247 501.703 462.417 512.099 401.757 512.099C341.096 512.099 310.267 501.703 280.436 491.665C250.477 481.576 219.468 471.129 158.501 471.129C107.391 471.129 77.3556 478.452 51.3145 486.774C51.5449 487.363 51.7498 487.978 52.0058 488.567C77.8934 480.296 107.75 473.024 158.501 473.024C219.161 473.024 249.991 483.42 279.821 493.457C309.78 503.546 340.789 513.993 401.731 513.993C462.699 513.993 493.682 503.546 523.641 493.457C553.472 483.42 584.301 473.024 644.961 473.024C705.622 473.024 736.451 483.42 766.282 493.457C796.267 503.546 827.25 513.993 888.217 513.993C949.185 513.993 980.194 503.546 1010.15 493.457C1039.98 483.42 1070.81 473.024 1131.47 473.024C1192.13 473.024 1222.96 483.42 1252.79 493.457C1282.75 503.546 1313.76 513.993 1374.7 513.993C1435.67 513.993 1466.65 503.546 1496.61 493.457C1526.44 483.42 1557.27 473.024 1617.93 473.024C1621.9 473.024 1625.72 473.075 1629.43 473.152C1629.15 472.512 1628.84 471.846 1628.56 471.206C1625.13 471.129 1621.57 471.104 1617.93 471.104L1618.04 471.129Z" fill="#074667"/>
<path d="M158.527 293.807C219.187 293.807 250.016 304.203 279.847 314.241C309.806 324.329 340.815 334.777 401.757 334.777C462.725 334.777 493.708 324.329 523.667 314.241C553.497 304.203 584.327 293.807 644.987 293.807C705.648 293.807 736.477 304.203 766.308 314.241C776.883 317.8 787.612 321.41 799.724 324.585C798.418 323.561 797.086 322.537 795.78 321.538C785.487 318.67 776.166 315.547 766.922 312.423C736.938 302.334 705.955 291.887 644.987 291.887C584.02 291.887 553.011 302.334 523.052 312.423C493.221 322.46 462.392 332.856 401.731 332.856C341.071 332.856 310.241 322.46 280.411 312.423C250.452 302.334 219.443 291.887 158.475 291.887C143.112 291.887 129.669 292.552 117.66 293.705C116.968 294.396 116.302 295.139 115.637 295.856C128.158 294.575 142.241 293.833 158.501 293.833L158.527 293.807Z" fill="#074667"/>
<path d="M158.525 268.202C219.186 268.202 250.015 278.598 279.846 288.635C309.805 298.724 340.814 309.171 401.756 309.171C462.723 309.171 493.706 298.724 523.665 288.635C526.482 287.688 529.299 286.74 532.141 285.793C527.941 286.587 523.742 287.329 519.543 287.995C490.762 297.648 460.009 307.251 401.73 307.251C341.07 307.251 310.24 296.855 280.409 286.817C250.45 276.728 219.442 266.281 158.474 266.281C155.785 266.281 153.199 266.307 150.613 266.358C149.614 266.998 148.616 267.664 147.617 268.33C151.125 268.253 154.736 268.202 158.474 268.202H158.525Z" fill="#074667"/>
<path d="M158.526 281.004C219.186 281.004 250.016 291.4 279.847 301.438C309.805 311.527 340.814 321.974 401.756 321.974C462.724 321.974 493.707 311.527 523.666 301.438C553.497 291.4 584.326 281.004 644.987 281.004C705.647 281.004 736.476 291.4 766.307 301.438C767.536 301.848 768.74 302.257 769.969 302.667C767.92 301.284 765.872 299.902 763.824 298.57C734.786 288.814 703.854 279.084 644.987 279.084C586.119 279.084 553.01 289.531 523.051 299.62C493.22 309.657 462.391 320.053 401.731 320.053C341.07 320.053 310.241 309.657 280.41 299.62C250.451 289.531 219.442 279.084 158.475 279.084C149.154 279.084 140.551 279.34 132.536 279.775C131.742 280.467 130.923 281.158 130.129 281.849C138.809 281.312 148.207 281.004 158.475 281.004H158.526Z" fill="#074667"/>
<path d="M158.527 306.61C219.188 306.61 250.017 317.006 279.848 327.043C309.807 337.132 340.816 347.579 401.758 347.579C462.725 347.579 493.709 337.132 523.667 327.043C553.498 317.006 584.328 306.61 644.988 306.61C705.649 306.61 736.478 317.006 766.309 327.043C783.03 332.677 800.083 338.412 822.463 342.381C821.362 341.536 820.286 340.666 819.185 339.821C798.675 335.903 782.645 330.526 766.923 325.225C736.939 315.137 705.956 304.689 644.988 304.689C584.021 304.689 553.012 315.137 523.053 325.225C493.222 335.263 462.393 345.659 401.732 345.659C341.072 345.659 310.242 335.263 280.411 325.225C250.453 315.137 219.444 304.689 158.476 304.689C137.403 304.689 119.914 305.944 104.806 307.993C104.192 308.71 103.603 309.452 102.988 310.195C118.505 307.993 136.532 306.61 158.476 306.61H158.527Z" fill="#074667"/>
<path d="M158.527 319.413C219.188 319.413 250.017 329.809 279.848 339.846C309.807 349.935 340.816 360.382 401.758 360.382C462.725 360.382 493.708 349.935 523.667 339.846C553.498 329.809 584.328 319.413 644.988 319.413C705.648 319.413 736.478 329.809 766.309 339.846C787.869 347.118 809.967 354.544 843.357 358.154C842.307 357.386 841.257 356.618 840.207 355.85C808.84 352.137 787.638 344.993 766.898 338.028C736.913 327.939 705.93 317.492 644.962 317.492C583.995 317.492 552.986 327.939 523.027 338.028C493.196 348.066 462.367 358.462 401.706 358.462C341.046 358.462 310.217 348.066 280.386 338.028C250.427 327.939 219.418 317.492 158.451 317.492C131.82 317.492 110.926 319.489 93.3091 322.562C92.7458 323.33 92.1825 324.073 91.6191 324.815C109.543 321.538 130.924 319.413 158.425 319.413H158.527Z" fill="#074667"/>
<path d="M158.526 345.02C219.187 345.02 250.016 355.416 279.847 365.454C309.806 375.542 340.815 385.989 401.757 385.989C462.724 385.989 493.707 375.542 523.666 365.454C553.497 355.416 584.327 345.02 644.987 345.02C705.647 345.02 736.477 355.416 766.308 365.454C796.292 375.542 827.275 385.989 888.243 385.989C890.215 385.989 892.135 385.989 894.03 385.964C892.161 385.375 890.317 384.735 888.499 384.069C888.397 384.069 888.32 384.069 888.217 384.069C827.557 384.069 796.727 373.673 766.897 363.636C736.912 353.547 705.929 343.1 644.961 343.1C583.994 343.1 552.985 353.547 523.026 363.636C493.195 373.673 462.366 384.069 401.705 384.069C341.045 384.069 310.215 373.673 280.385 363.636C250.426 353.547 219.417 343.1 158.449 343.1C120.809 343.1 94.6139 347.069 73.0025 352.497C72.516 353.291 72.0295 354.059 71.543 354.853C93.4104 349.219 119.912 345.02 158.475 345.02H158.526Z" fill="#074667"/>
<path d="M158.526 332.217C219.187 332.217 250.016 342.613 279.847 352.651C309.806 362.74 340.815 373.187 401.757 373.187C462.724 373.187 493.707 362.74 523.666 352.651C553.497 342.613 584.327 332.217 644.987 332.217C705.647 332.217 736.477 342.613 766.308 352.651C792.17 361.357 818.8 370.319 864.762 372.623C863.661 371.932 862.535 371.241 861.434 370.524C817.801 367.963 791.99 359.283 766.922 350.833C736.938 340.744 705.955 330.297 644.987 330.297C584.019 330.297 553.011 340.744 523.052 350.833C493.221 360.87 462.391 371.266 401.731 371.266C341.071 371.266 310.241 360.87 280.41 350.833C250.451 340.744 219.443 330.297 158.475 330.297C126.34 330.297 102.552 333.19 82.8352 337.415C82.3231 338.183 81.8109 338.952 81.2988 339.72C101.297 335.29 125.469 332.217 158.475 332.217H158.526Z" fill="#074667"/>
<path d="M401.757 296.368C426.774 296.368 446.746 294.601 463.672 291.836C459.959 291.759 456.246 291.657 452.533 291.503C438.092 293.347 421.525 294.448 401.731 294.448C341.071 294.448 310.241 284.052 280.41 274.014C253.217 264.847 225.153 255.399 174.607 253.734C173.224 254.298 171.841 254.938 170.484 255.552C223.335 256.833 252.014 266.486 279.796 275.832C309.755 285.921 340.764 296.368 401.706 296.368H401.757Z" fill="#074667"/>
<path d="M158.527 421.838C219.187 421.838 250.017 432.234 279.848 442.272C309.807 452.361 340.815 462.808 401.757 462.808C462.725 462.808 493.708 452.361 523.667 442.272C553.498 432.234 584.327 421.838 644.988 421.838C705.648 421.838 736.478 432.234 766.309 442.272C796.293 452.361 827.276 462.808 888.244 462.808C949.211 462.808 980.22 452.361 1010.18 442.272C1040.01 432.234 1070.84 421.838 1131.5 421.838C1192.16 421.838 1222.99 432.234 1252.82 442.272C1282.78 452.361 1313.79 462.808 1374.73 462.808C1435.7 462.808 1466.68 452.361 1496.64 442.272C1525.29 432.619 1554.92 422.658 1611.02 421.89C1610.87 421.249 1610.71 420.609 1610.56 419.969C1554.43 420.789 1524.76 430.775 1496.03 440.454C1466.19 450.491 1435.36 460.887 1374.7 460.887C1314.04 460.887 1283.21 450.491 1253.38 440.454C1223.4 430.365 1192.42 419.918 1131.45 419.918C1070.48 419.918 1039.47 430.365 1009.51 440.454C979.682 450.491 948.853 460.887 888.193 460.887C827.532 460.887 796.703 450.491 766.872 440.454C736.887 430.365 705.904 419.918 644.937 419.918C583.969 419.918 552.96 430.365 523.001 440.454C493.171 450.491 462.341 460.887 401.681 460.887C341.02 460.887 310.191 450.491 280.36 440.454C250.401 430.365 219.392 419.918 158.425 419.918C102.245 419.918 71.5183 428.778 43.6079 438.073C43.6079 438.764 43.5822 439.43 43.5566 440.121C71.5183 430.8 102.117 421.838 158.425 421.838H158.527Z" fill="#074667"/>
<path d="M158.525 409.034C219.186 409.034 250.015 419.43 279.846 429.467C309.805 439.556 340.814 450.003 401.756 450.003C462.723 450.003 493.707 439.556 523.665 429.467C553.496 419.43 584.326 409.034 644.986 409.034C705.646 409.034 736.476 419.43 766.307 429.467C796.291 439.556 827.274 450.003 888.242 450.003C949.21 450.003 980.218 439.556 1010.18 429.467C1040.01 419.43 1070.84 409.034 1131.5 409.034C1192.16 409.034 1222.99 419.43 1252.82 429.467C1282.78 439.556 1313.79 450.003 1374.73 450.003C1435.7 450.003 1466.68 439.556 1496.64 429.467C1524.8 419.993 1553.87 410.212 1608.07 409.136C1607.95 408.496 1607.82 407.856 1607.69 407.216C1553.43 408.317 1524.27 418.124 1496.05 427.649C1466.22 437.687 1435.39 448.083 1374.73 448.083C1314.07 448.083 1283.24 437.687 1253.41 427.649C1223.42 417.56 1192.44 407.113 1131.47 407.113C1070.5 407.113 1039.5 417.56 1009.54 427.649C979.706 437.687 948.877 448.083 888.216 448.083C827.556 448.083 796.727 437.687 766.896 427.649C736.911 417.56 705.928 407.113 644.961 407.113C583.993 407.113 552.984 417.56 523.025 427.649C493.194 437.687 462.365 448.083 401.705 448.083C341.044 448.083 310.215 437.687 280.384 427.649C250.425 417.56 219.416 407.113 158.449 407.113C102.986 407.113 72.336 415.742 44.7072 424.909C44.6048 425.601 44.528 426.318 44.4512 427.009C72.1824 417.791 102.73 409.034 158.449 409.034H158.525Z" fill="#074667"/>
<path d="M158.527 370.626C219.187 370.626 250.016 381.022 279.847 391.059C309.806 401.148 340.815 411.595 401.757 411.595C462.725 411.595 493.708 401.148 523.667 391.059C553.497 381.022 584.327 370.626 644.987 370.626C705.648 370.626 736.477 381.022 766.308 391.059C796.293 401.148 827.276 411.595 888.243 411.595C949.211 411.595 980.22 401.148 1010.18 391.059C1040.01 381.022 1070.84 370.626 1131.5 370.626C1192.16 370.626 1222.99 381.022 1252.82 391.059C1282.78 401.148 1313.79 411.595 1374.73 411.595C1435.7 411.595 1466.68 401.148 1496.64 391.059C1523.86 381.892 1551.92 372.444 1602.72 370.856C1602.67 370.216 1602.65 369.576 1602.6 368.936C1551.59 370.523 1523.37 380.023 1496.05 389.241C1466.22 399.279 1435.39 409.675 1374.73 409.675C1314.07 409.675 1283.24 399.279 1253.41 389.241C1223.42 379.152 1192.44 368.705 1131.47 368.705C1070.51 368.705 1039.5 379.152 1009.54 389.241C979.708 399.279 948.878 409.675 888.218 409.675C827.557 409.675 796.728 399.279 766.897 389.241C736.912 379.152 705.929 368.705 644.962 368.705C583.994 368.705 552.985 379.152 523.026 389.241C493.196 399.279 462.366 409.675 401.706 409.675C341.045 409.675 310.216 399.279 280.385 389.241C250.426 379.152 219.417 368.705 158.45 368.705C110.567 368.705 81.1712 375.158 56.2311 382.788C55.8982 383.556 55.5653 384.325 55.2324 385.118C80.3774 377.309 109.824 370.626 158.424 370.626H158.527Z" fill="#074667"/>
<path d="M158.525 383.428C219.185 383.428 250.015 393.824 279.846 403.862C309.805 413.951 340.813 424.398 401.755 424.398C462.723 424.398 493.706 413.951 523.665 403.862C553.496 393.824 584.326 383.428 644.986 383.428C705.646 383.428 736.476 393.824 766.307 403.862C796.291 413.951 827.274 424.398 888.242 424.398C949.209 424.398 980.218 413.951 1010.18 403.862C1040.01 393.824 1070.84 383.428 1131.5 383.428C1192.16 383.428 1222.99 393.824 1252.82 403.862C1282.78 413.951 1313.79 424.398 1374.73 424.398C1435.7 424.398 1466.68 413.951 1496.64 403.862C1524.06 394.618 1552.38 385.093 1603.95 383.633C1603.88 382.993 1603.8 382.353 1603.72 381.713C1551.97 383.198 1523.55 392.774 1496 402.044C1466.17 412.081 1435.34 422.477 1374.68 422.477C1314.02 422.477 1283.19 412.081 1253.36 402.044C1223.37 391.955 1192.39 381.508 1131.42 381.508C1070.45 381.508 1039.44 391.955 1009.49 402.044C979.655 412.081 948.825 422.477 888.165 422.477C827.505 422.477 796.675 412.081 766.844 402.044C736.86 391.955 705.877 381.508 644.909 381.508C583.941 381.508 552.933 391.955 522.974 402.044C493.143 412.081 462.313 422.477 401.653 422.477C340.993 422.477 310.163 412.081 280.332 402.044C250.373 391.955 219.365 381.508 158.397 381.508C107.006 381.508 76.8936 388.934 50.7756 397.307C50.5451 398.049 50.289 398.792 50.0586 399.56C76.3558 391.059 106.443 383.428 158.397 383.428H158.525Z" fill="#074667"/>
<path d="M158.527 396.233C219.188 396.233 250.017 406.629 279.848 416.666C309.807 426.755 340.816 437.202 401.758 437.202C462.725 437.202 493.708 426.755 523.667 416.666C553.498 406.629 584.328 396.233 644.988 396.233C705.648 396.233 736.478 406.629 766.309 416.666C796.293 426.755 827.276 437.202 888.244 437.202C949.212 437.202 980.22 426.755 1010.18 416.666C1040.01 406.629 1070.84 396.233 1131.5 396.233C1192.16 396.233 1222.99 406.629 1252.82 416.666C1282.78 426.755 1313.79 437.202 1374.73 437.202C1435.7 437.202 1466.68 426.755 1496.64 416.666C1524.4 407.32 1553.02 397.692 1605.72 396.387C1605.62 395.746 1605.52 395.106 1605.41 394.466C1552.61 395.798 1523.86 405.477 1496.03 414.848C1466.19 424.886 1435.36 435.282 1374.7 435.282C1314.04 435.282 1283.21 424.886 1253.38 414.848C1223.4 404.76 1192.42 394.312 1131.45 394.312C1070.48 394.312 1039.47 404.76 1009.51 414.848C979.683 424.886 948.853 435.282 888.193 435.282C827.532 435.282 796.703 424.886 766.872 414.848C736.887 404.76 705.904 394.312 644.937 394.312C583.969 394.312 552.96 404.76 523.002 414.848C493.171 424.886 462.341 435.282 401.681 435.282C341.02 435.282 310.191 424.886 280.36 414.848C250.401 404.76 219.392 394.312 158.425 394.312C104.524 394.312 74.0535 402.481 47.0136 411.34C46.86 412.057 46.7064 412.774 46.5527 413.517C73.7206 404.555 104.115 396.233 158.399 396.233H158.527Z" fill="#074667"/>
<path d="M158.527 357.823C219.187 357.823 250.017 368.219 279.848 378.256C309.806 388.345 340.815 398.792 401.757 398.792C462.725 398.792 493.708 388.345 523.667 378.256C553.498 368.219 584.327 357.823 644.988 357.823C705.648 357.823 736.477 368.219 766.308 378.256C796.293 388.345 827.276 398.792 888.244 398.792C911.315 398.792 930.084 397.307 946.138 394.9C942.887 394.747 939.66 394.542 936.434 394.26C922.607 395.899 906.833 396.872 888.244 396.872C827.583 396.872 796.754 386.476 766.923 376.438C736.938 366.35 705.955 355.902 644.988 355.902C584.02 355.902 553.011 366.35 523.052 376.438C493.221 386.476 462.392 396.872 401.732 396.872C341.071 396.872 310.242 386.476 280.411 376.438C250.452 366.35 219.443 355.902 158.476 355.902C115.304 355.902 87.1632 361.152 63.7595 367.783C63.2986 368.577 62.8376 369.371 62.4023 370.165C86.0366 363.302 114.382 357.823 158.476 357.823H158.527Z" fill="#074667"/>
<path d="M279.847 263.03C306.298 271.94 333.543 281.107 381.426 283.13C377.79 282.362 374.179 281.517 370.595 280.595C329.574 277.727 304.685 269.354 280.462 261.186C260.873 254.58 240.824 247.845 212.248 243.953C209.815 244.235 207.434 244.593 205.078 245.003C237.239 248.665 258.799 255.911 279.847 263.004V263.03Z" fill="#074667"/>
<path d="M645.013 268.202C674.511 268.202 696.942 270.66 715.66 274.347C710.538 272.58 705.315 271.044 699.912 269.764C684.523 267.613 666.65 266.281 644.987 266.281C641.658 266.281 638.432 266.307 635.283 266.384C628.113 267.101 620.943 268.074 613.748 269.226C623.248 268.56 633.593 268.202 644.987 268.202H645.013Z" fill="#074667"/>
<path d="M1496.1 453.255C1466.27 463.292 1435.44 473.688 1374.78 473.688C1314.12 473.688 1283.29 463.292 1253.46 453.255C1223.47 443.166 1192.49 432.719 1131.52 432.719C1070.56 432.719 1039.55 443.166 1009.59 453.255C979.757 463.292 948.927 473.688 888.267 473.688C827.607 473.688 796.777 463.292 766.947 453.255C736.962 443.166 705.979 432.719 645.011 432.719C584.044 432.719 553.035 443.166 523.076 453.255C493.245 463.292 462.416 473.688 401.755 473.688C341.095 473.688 310.265 463.292 280.435 453.255C250.476 443.166 219.467 432.719 158.499 432.719C102.422 432.719 71.6954 441.553 43.8105 450.822C43.8362 451.488 43.8618 452.154 43.913 452.819C71.7978 443.524 102.397 434.639 158.499 434.639C219.16 434.639 249.989 445.035 279.82 455.073C309.779 465.161 340.788 475.609 401.73 475.609C462.697 475.609 493.68 465.161 523.639 455.073C553.47 445.035 584.3 434.639 644.96 434.639C705.62 434.639 736.45 445.035 766.281 455.073C796.265 465.161 827.248 475.609 888.216 475.609C949.184 475.609 980.192 465.161 1010.15 455.073C1039.98 445.035 1070.81 434.639 1131.47 434.639C1192.13 434.639 1222.96 445.035 1252.79 455.073C1282.75 465.161 1313.76 475.609 1374.7 475.609C1435.67 475.609 1466.65 465.161 1496.61 455.073C1525.88 445.214 1556.17 435.023 1614.63 434.665C1614.42 434.025 1614.25 433.385 1614.07 432.744C1555.66 433.18 1525.34 443.371 1496 453.255H1496.1Z" fill="#074667"/>
<path d="M158.526 409.367C219.135 409.367 249.939 419.738 279.745 429.775C309.729 439.89 340.763 450.337 401.757 450.337C462.776 450.337 493.784 439.89 523.769 429.775C553.574 419.738 584.378 409.367 644.987 409.367C705.596 409.367 736.4 419.738 766.205 429.775C796.19 439.89 827.224 450.337 888.243 450.337C949.262 450.337 980.296 439.89 1010.28 429.775C1040.09 419.738 1070.89 409.367 1131.5 409.367C1192.11 409.367 1222.91 419.738 1252.72 429.775C1282.7 439.89 1313.71 450.337 1374.73 450.337C1435.75 450.337 1466.76 439.89 1496.74 429.775C1514.38 423.835 1532.38 417.766 1556.68 413.823C1556.76 412.952 1556.84 412.056 1556.89 411.185C1532.1 415.154 1513.82 421.325 1495.92 427.343C1466.12 437.38 1435.31 447.751 1374.7 447.751C1314.12 447.751 1283.29 437.38 1253.49 427.343C1223.5 417.228 1192.47 406.781 1131.45 406.781C1070.43 406.781 1039.39 417.228 1009.41 427.343C979.605 437.38 948.801 447.751 888.192 447.751C827.583 447.751 796.779 437.38 766.973 427.343C736.989 417.228 705.955 406.781 644.936 406.781C583.917 406.781 552.883 417.228 522.898 427.343C493.093 437.38 462.289 447.751 401.68 447.751C341.071 447.751 310.267 437.38 280.462 427.343C250.477 417.228 219.443 406.781 158.424 406.781C144.597 406.781 132.306 407.319 121.244 408.266C121.321 409.111 121.449 409.956 121.551 410.801C132.536 409.854 144.725 409.316 158.424 409.316L158.526 409.367Z" fill="#074667"/>
<path d="M158.526 422.17C219.136 422.17 249.94 432.541 279.745 442.578C309.729 452.692 340.764 463.14 401.757 463.14C462.776 463.14 493.784 452.692 523.769 442.578C553.574 432.541 584.378 422.17 644.987 422.17C705.596 422.17 736.4 432.541 766.206 442.578C796.19 452.692 827.224 463.14 888.243 463.14C949.262 463.14 980.296 452.692 1010.28 442.578C1040.09 432.541 1070.89 422.17 1131.5 422.17C1192.11 422.17 1222.91 432.541 1252.72 442.578C1282.7 452.692 1313.71 463.14 1374.73 463.14C1435.75 463.14 1466.76 452.692 1496.74 442.578C1514.1 436.74 1531.8 430.774 1555.53 426.805C1555.61 425.934 1555.71 425.038 1555.79 424.167C1531.57 428.162 1513.56 434.205 1495.92 440.146C1466.12 450.183 1435.31 460.553 1374.7 460.553C1314.12 460.553 1283.29 450.183 1253.49 440.146C1223.5 430.031 1192.47 419.584 1131.45 419.584C1070.43 419.584 1039.39 430.031 1009.41 440.146C979.605 450.183 948.801 460.553 888.192 460.553C827.583 460.553 796.779 450.183 766.974 440.146C736.989 430.031 705.955 419.584 644.936 419.584C583.917 419.584 552.883 430.031 522.898 440.146C493.093 450.183 462.289 460.553 401.68 460.553C341.071 460.553 310.267 450.183 280.462 440.146C250.477 430.031 219.443 419.584 158.424 419.584C145.647 419.584 134.201 420.045 123.779 420.864C124.035 421.709 124.317 422.554 124.624 423.374C134.815 422.58 145.98 422.145 158.424 422.145L158.526 422.17Z" fill="#074667"/>
<path d="M158.528 396.564C219.137 396.564 249.941 406.935 279.746 416.972C309.73 427.087 340.765 437.534 401.758 437.534C462.777 437.534 493.786 427.087 523.77 416.972C553.575 406.935 584.379 396.564 644.988 396.564C705.598 396.564 736.401 406.935 766.207 416.972C796.191 427.087 827.226 437.534 888.244 437.534C949.263 437.534 980.298 427.087 1010.28 416.972C1040.09 406.935 1070.89 396.564 1131.5 396.564C1192.11 396.564 1222.91 406.935 1252.72 416.972C1282.7 427.087 1313.71 437.534 1374.73 437.534C1435.75 437.534 1466.76 427.087 1496.74 416.972C1514.56 410.955 1532.77 404.835 1557.51 400.892C1557.56 400.021 1557.58 399.151 1557.61 398.28C1532.44 402.249 1513.98 408.471 1495.9 414.565C1466.09 424.603 1435.29 434.973 1374.68 434.973C1314.1 434.973 1283.27 424.603 1253.46 414.565C1223.48 404.451 1192.44 394.004 1131.42 394.004C1070.4 394.004 1039.37 404.451 1009.39 414.565C979.581 424.603 948.777 434.973 888.168 434.973C827.558 434.973 796.755 424.603 766.949 414.565C736.965 404.451 705.93 394.004 644.912 394.004C583.893 394.004 552.858 404.451 522.874 414.565C493.069 424.603 462.265 434.973 401.656 434.973C341.046 434.973 310.243 424.603 280.437 414.565C250.453 404.451 219.418 394.004 158.4 394.004C144.47 394.004 132.128 394.542 120.964 395.515C120.913 396.385 120.887 397.23 120.861 398.101C132.025 397.128 144.419 396.564 158.4 396.564H158.528Z" fill="#074667"/>
<path d="M158.527 434.973C219.136 434.973 249.94 445.343 279.745 455.381C309.73 465.495 340.764 475.942 401.757 475.942C462.776 475.942 493.785 465.495 523.769 455.381C553.575 445.343 584.379 434.973 644.988 434.973C705.597 434.973 736.401 445.343 766.206 455.381C796.191 465.495 827.225 475.942 888.244 475.942C949.263 475.942 980.297 465.495 1010.28 455.381C1040.09 445.343 1070.89 434.973 1131.5 434.973C1192.11 434.973 1222.91 445.343 1252.72 455.381C1282.7 465.495 1313.71 475.942 1374.73 475.942C1435.75 475.942 1466.76 465.495 1496.74 455.381C1513.74 449.645 1531.11 443.807 1554.12 439.864C1554.23 438.967 1554.33 438.097 1554.43 437.201C1530.87 441.195 1513.23 447.136 1495.92 452.948C1466.12 462.986 1435.31 473.356 1374.7 473.356C1314.12 473.356 1283.29 462.986 1253.49 452.948C1223.5 442.834 1192.47 432.387 1131.45 432.387C1070.43 432.387 1039.4 442.834 1009.41 452.948C979.606 462.986 948.802 473.356 888.192 473.356C827.583 473.356 796.779 462.986 766.974 452.948C736.99 442.834 705.955 432.387 644.937 432.387C583.918 432.387 552.883 442.834 522.899 452.948C493.094 462.986 462.29 473.356 401.681 473.356C341.071 473.356 310.268 462.986 280.462 452.948C250.478 442.834 219.443 432.387 158.425 432.387C147.849 432.387 138.222 432.694 129.285 433.283C129.797 434.128 130.309 434.947 130.873 435.741C139.348 435.229 148.464 434.947 158.425 434.947L158.527 434.973Z" fill="#074667"/>
<path d="M158.527 319.746C219.136 319.746 249.94 330.117 279.746 340.154C309.73 350.268 340.764 360.716 401.758 360.716C462.776 360.716 493.785 350.268 523.77 340.154C553.575 330.117 584.379 319.746 644.988 319.746C698.427 319.746 728.694 327.812 755.529 336.595C753.455 335.007 751.38 333.445 749.281 331.909C723.905 323.971 694.203 317.186 644.988 317.186C583.969 317.186 552.935 327.633 522.95 337.747C493.145 347.785 462.341 358.155 401.732 358.155C341.123 358.155 310.319 347.785 280.514 337.747C250.708 327.71 219.879 317.339 159.628 317.211C158.783 318.056 157.964 318.901 157.145 319.772C157.605 319.772 158.041 319.772 158.476 319.772L158.527 319.746Z" fill="#074667"/>
<path d="M158.526 447.776C219.135 447.776 249.939 458.146 279.744 468.184C309.729 478.298 340.763 488.745 401.756 488.745C462.775 488.745 493.784 478.298 523.768 468.184C553.573 458.146 584.377 447.776 644.987 447.776C705.596 447.776 736.4 458.146 766.205 468.184C796.189 478.298 827.224 488.745 888.242 488.745C949.261 488.745 980.296 478.298 1010.28 468.184C1040.09 458.146 1070.89 447.776 1131.5 447.776C1192.11 447.776 1222.91 458.146 1252.72 468.184C1282.7 478.298 1313.71 488.745 1374.73 488.745C1435.75 488.745 1466.76 478.298 1496.74 468.184C1513.38 462.576 1530.36 456.866 1552.64 452.922C1552.74 452.026 1552.84 451.156 1552.95 450.259C1530.13 454.254 1512.85 460.066 1495.92 465.751C1466.12 475.788 1435.31 486.159 1374.7 486.159C1314.12 486.159 1283.29 475.788 1253.48 465.751C1223.5 455.637 1192.47 445.189 1131.45 445.189C1070.43 445.189 1039.39 455.637 1009.41 465.751C979.604 475.788 948.8 486.159 888.191 486.159C827.582 486.159 796.778 475.788 766.973 465.751C736.988 455.637 705.954 445.189 644.935 445.189C583.916 445.189 552.882 455.637 522.898 465.751C493.092 475.788 462.289 486.159 401.679 486.159C341.07 486.159 310.266 475.788 280.461 465.751C250.477 455.637 219.442 445.189 158.423 445.189C151.74 445.189 145.441 445.317 139.424 445.548C140.371 446.393 141.344 447.212 142.317 448.006C147.438 447.827 152.79 447.75 158.398 447.75L158.526 447.776Z" fill="#074667"/>
<path d="M158.526 332.551C219.135 332.551 249.939 342.921 279.744 352.959C309.729 363.073 340.763 373.52 401.756 373.52C462.775 373.52 493.784 363.073 523.768 352.959C553.574 342.921 584.377 332.551 644.987 332.551C705.596 332.551 736.4 342.921 766.205 352.959C771.3 354.674 776.422 356.39 781.696 358.08C779.981 356.62 778.265 355.161 776.524 353.727C773.323 352.677 770.148 351.602 766.999 350.552C737.014 340.437 705.98 329.99 644.961 329.99C583.942 329.99 552.908 340.437 522.923 350.552C493.118 360.589 462.314 370.96 401.705 370.96C341.096 370.96 310.292 360.589 280.487 350.552C250.502 340.437 219.468 329.99 158.449 329.99C154.915 329.99 151.51 330.041 148.155 330.093C147.464 330.963 146.824 331.834 146.158 332.704C150.127 332.602 154.198 332.551 158.449 332.551H158.526Z" fill="#074667"/>
<path d="M158.526 345.352C219.135 345.352 249.939 355.722 279.744 365.76C309.729 375.874 340.763 386.321 401.756 386.321C462.775 386.321 493.784 375.874 523.768 365.76C553.574 355.722 584.377 345.352 644.987 345.352C705.596 345.352 736.4 355.722 766.205 365.76C778.47 369.882 790.94 374.082 805.535 377.59C803.871 376.309 802.232 375.003 800.594 373.698C788.405 370.522 777.651 366.886 767.024 363.327C737.04 353.213 706.005 342.766 644.987 342.766C583.968 342.766 552.933 353.213 522.949 363.327C493.144 373.365 462.34 383.735 401.731 383.735C341.122 383.735 310.318 373.365 280.512 363.327C250.528 353.213 219.494 342.766 158.475 342.766C151.587 342.766 145.108 342.894 138.937 343.15C138.4 344.02 137.862 344.891 137.324 345.787C143.956 345.48 150.972 345.326 158.449 345.326L158.526 345.352Z" fill="#074667"/>
<path d="M158.526 383.762C219.135 383.762 249.939 394.132 279.744 404.17C309.728 414.284 340.763 424.731 401.756 424.731C462.775 424.731 493.783 414.284 523.768 404.17C553.573 394.132 584.377 383.762 644.986 383.762C705.595 383.762 736.399 394.132 766.205 404.17C796.189 414.284 827.223 424.731 888.242 424.731C943.781 424.731 974.457 416.076 1002.14 406.909C999.551 406.909 996.888 406.884 994.148 406.807C968.414 415.001 938.609 422.171 888.242 422.171C827.633 422.171 796.829 411.8 767.024 401.763C737.039 391.648 706.005 381.201 644.986 381.201C583.967 381.201 552.933 391.648 522.949 401.763C493.143 411.8 462.339 422.171 401.73 422.171C341.121 422.171 310.317 411.8 280.512 401.763C250.527 391.648 219.493 381.201 158.474 381.201C145.262 381.201 133.457 381.688 122.754 382.558C122.575 383.429 122.421 384.299 122.268 385.17C133.099 384.274 145.057 383.762 158.5 383.762H158.526Z" fill="#074667"/>
<path d="M158.527 358.156C219.137 358.156 249.94 368.527 279.746 378.564C309.73 388.679 340.765 399.126 401.758 399.126C462.777 399.126 493.785 388.679 523.77 378.564C553.575 368.527 584.379 358.156 644.988 358.156C705.597 358.156 736.401 368.527 766.206 378.564C784.95 384.863 804.077 391.316 830.682 395.259C828.966 394.107 827.302 392.981 825.612 391.854C802.003 387.885 784.335 381.944 767.051 376.132C737.067 366.018 706.033 355.57 645.014 355.57C583.995 355.57 552.961 366.018 522.976 376.132C493.171 386.169 462.367 396.54 401.758 396.54C341.149 396.54 310.345 386.169 280.539 376.132C250.555 366.018 219.521 355.57 158.502 355.57C148.823 355.57 139.912 355.826 131.641 356.313C131.231 357.183 130.822 358.08 130.412 358.95C139.041 358.413 148.336 358.131 158.502 358.131L158.527 358.156Z" fill="#074667"/>
<path d="M158.526 370.959C219.136 370.959 249.939 381.33 279.745 391.367C309.729 401.481 340.763 411.929 401.757 411.929C462.776 411.929 493.784 401.481 523.769 391.367C553.574 381.33 584.378 370.959 644.987 370.959C705.596 370.959 736.4 381.33 766.205 391.367C796.19 401.481 827.224 411.929 888.243 411.929C907.243 411.929 923.323 410.904 937.381 409.214C911.672 410.853 883.736 412.108 862.611 408.677C818.313 406.219 792.298 397.461 767.025 388.935C737.04 378.82 706.006 368.373 644.987 368.373C583.968 368.373 552.934 378.82 522.949 388.935C493.144 398.972 462.34 409.342 401.731 409.342C341.122 409.342 310.318 398.972 280.513 388.935C250.528 378.82 219.494 368.373 158.475 368.373C146.696 368.373 136.019 368.757 126.263 369.474C125.981 370.345 125.674 371.215 125.418 372.111C135.404 371.369 146.338 370.934 158.475 370.934L158.526 370.959Z" fill="#074667"/>
<path d="M279.745 480.986C309.729 491.101 340.764 501.548 401.757 501.548C462.776 501.548 493.785 491.101 523.769 480.986C553.574 470.949 584.378 460.578 644.987 460.578C705.596 460.578 736.4 470.949 766.206 480.986C796.19 491.101 827.224 501.548 888.243 501.548C949.262 501.548 980.297 491.101 1010.28 480.986C1040.09 470.949 1070.89 460.578 1131.5 460.578C1192.11 460.578 1222.91 470.949 1252.72 480.986C1282.7 491.101 1313.71 501.548 1374.73 501.548C1435.75 501.548 1466.76 491.101 1496.74 480.986C1513.03 475.507 1529.62 469.925 1551.23 465.981C1551.33 465.085 1551.41 464.214 1551.51 463.318C1529.41 467.287 1512.51 472.972 1495.92 478.554C1466.12 488.591 1435.31 498.962 1374.7 498.962C1314.12 498.962 1283.29 488.591 1253.49 478.554C1223.5 468.439 1192.47 457.992 1131.45 457.992C1070.43 457.992 1039.39 468.439 1009.41 478.554C979.605 488.591 948.801 498.962 888.192 498.962C827.583 498.962 796.779 488.591 766.974 478.554C736.989 468.439 705.955 457.992 644.936 457.992C583.917 457.992 552.883 468.439 522.898 478.554C493.093 488.591 462.289 498.962 401.68 498.962C341.071 498.962 310.267 488.591 280.462 478.554C250.733 468.542 219.981 458.197 160.012 458.018C162.547 459.016 165.107 459.887 167.745 460.655C222.26 461.654 251.425 471.461 279.642 480.986H279.745Z" fill="#074667"/>
<path d="M279.744 276.14C304.147 284.359 329.215 292.809 370.568 295.677C367.956 294.602 365.37 293.526 362.784 292.476C326.424 289.148 303.199 281.338 280.564 273.733C276.851 272.478 273.087 271.223 269.297 269.969C267.914 269.969 266.557 269.969 265.174 270.02C263.997 270.071 262.793 270.148 261.615 270.225C267.863 272.171 273.829 274.168 279.77 276.165L279.744 276.14Z" fill="#074667"/>
<path d="M279.744 327.351C309.728 337.466 340.762 347.913 401.756 347.913C462.775 347.913 493.783 337.466 523.768 327.351C553.573 317.314 584.377 306.943 644.986 306.943C676.942 306.943 700.628 309.837 720.242 314.036C716.887 312.372 713.405 310.861 709.846 309.402C692.306 306.354 671.463 304.383 644.986 304.383C583.967 304.383 552.933 314.83 522.948 324.944C493.143 334.982 462.339 345.352 401.73 345.352C341.121 345.352 310.317 334.982 280.512 324.944C253.114 315.726 224.845 306.201 173.633 304.613C172.609 305.433 171.61 306.252 170.611 307.097C223.334 308.377 251.961 318.031 279.692 327.377L279.744 327.351Z" fill="#074667"/>
<path d="M279.745 288.944C309.729 299.058 340.764 309.505 401.757 309.505C403.6 309.505 405.418 309.505 407.211 309.48C404.42 308.66 401.68 307.815 399.017 306.945C340.226 306.638 309.883 296.421 280.539 286.537C267.172 282.03 253.576 277.472 237.213 273.785C235.319 274.22 233.449 274.681 231.58 275.193C250.144 279.009 265.047 284.027 279.719 288.969L279.745 288.944Z" fill="#074667"/>
<path d="M279.745 301.746C309.73 311.86 340.764 322.307 401.757 322.307C424.009 322.307 442.266 320.899 457.937 318.646C454.07 318.39 450.152 318.031 446.209 317.545C433.304 318.927 418.683 319.747 401.732 319.747C341.123 319.747 310.319 309.376 280.513 299.339C260.771 292.681 240.594 285.896 211.685 282.029C210.148 282.669 208.638 283.335 207.127 284.027C238.084 287.765 259.133 294.832 279.694 301.771L279.745 301.746Z" fill="#074667"/>
<path d="M279.744 314.549C309.728 324.663 340.763 335.11 401.756 335.11C462.775 335.11 493.784 324.663 523.768 314.549C553.573 304.511 584.377 294.141 644.986 294.141C647.675 294.141 650.287 294.166 652.847 294.218C645.652 293.117 638.406 292.323 631.159 291.785C579.102 293.245 550.577 302.821 522.949 312.142C493.143 322.179 462.34 332.55 401.73 332.55C341.121 332.55 310.317 322.179 280.512 312.142C256.34 303.999 231.477 295.626 190.789 292.681C189.534 293.45 188.305 294.218 187.076 295.011C229.582 297.7 255.009 306.252 279.718 314.574L279.744 314.549Z" fill="#074667"/>
<path d="M1496 504.161C1466.19 514.199 1435.39 524.569 1374.78 524.569C1314.2 524.569 1283.37 514.199 1253.56 504.161C1223.58 494.047 1192.54 483.6 1131.52 483.6C1070.51 483.6 1039.47 494.047 1009.49 504.161C979.682 514.199 948.878 524.569 888.269 524.569C827.66 524.569 796.856 514.199 767.051 504.161C737.066 494.047 706.032 483.6 645.013 483.6C583.994 483.6 552.96 494.047 522.975 504.161C493.17 514.199 462.366 524.569 401.757 524.569C366.856 524.569 341.865 521.112 321.227 516.298C323.121 517.579 325.016 518.885 326.911 520.19C346.474 524.313 370.057 527.13 401.757 527.13C462.776 527.13 493.785 516.682 523.769 506.568C553.574 496.531 584.378 486.16 644.987 486.16C705.597 486.16 736.4 496.531 766.206 506.568C796.19 516.682 827.225 527.13 888.243 527.13C949.262 527.13 980.297 516.682 1010.28 506.568C1040.09 496.531 1070.89 486.16 1131.5 486.16C1192.11 486.16 1222.91 496.531 1252.72 506.568C1282.7 516.682 1313.71 527.13 1374.73 527.13C1435.75 527.13 1466.76 516.682 1496.74 506.568C1512.49 501.268 1528.52 495.865 1549.08 491.947C1549.13 491.077 1549.18 490.18 1549.23 489.31C1528.24 493.253 1511.93 498.758 1495.9 504.136L1496 504.161Z" fill="#074667"/>
<path d="M1496 491.356C1466.19 501.394 1435.39 511.764 1374.78 511.764C1314.2 511.764 1283.37 501.394 1253.56 491.356C1223.58 481.242 1192.54 470.795 1131.52 470.795C1070.51 470.795 1039.47 481.242 1009.49 491.356C979.681 501.394 948.877 511.764 888.268 511.764C827.659 511.764 796.855 501.394 767.05 491.356C737.065 481.242 706.031 470.795 645.012 470.795C583.993 470.795 552.959 481.242 522.975 491.356C493.169 501.394 462.365 511.764 401.756 511.764C341.147 511.764 310.343 501.394 280.538 491.356C278.643 490.716 276.748 490.076 274.854 489.436C279.898 491.869 284.917 494.455 289.91 497.169C317.078 506.08 347.6 514.325 401.756 514.325C462.775 514.325 493.784 503.878 523.768 493.763C553.574 483.726 584.378 473.356 644.987 473.356C705.596 473.356 736.4 483.726 766.205 493.763C796.189 503.878 827.224 514.325 888.243 514.325C949.261 514.325 980.296 503.878 1010.28 493.763C1040.09 483.726 1070.89 473.356 1131.5 473.356C1192.11 473.356 1222.91 483.726 1252.72 493.763C1282.7 503.878 1313.71 514.325 1374.73 514.325C1435.75 514.325 1466.76 503.878 1496.74 493.763C1512.72 488.386 1529 482.906 1550 478.989C1550.08 478.118 1550.15 477.222 1550.23 476.351C1528.75 480.32 1512.18 485.877 1495.92 491.356H1496Z" fill="#074667"/>
<path d="M1548.8 502.24C1528.03 506.184 1511.87 511.638 1496 516.964C1466.19 527.001 1435.39 537.372 1374.78 537.372C1314.2 537.372 1283.37 527.001 1253.56 516.964C1223.58 506.85 1192.54 496.402 1131.52 496.402C1070.51 496.402 1039.47 506.85 1009.49 516.964C979.682 527.001 948.878 537.372 888.269 537.372C827.66 537.372 796.856 527.001 767.051 516.964C737.066 506.85 706.032 496.402 645.013 496.402C583.994 496.402 552.96 506.85 522.975 516.964C493.17 527.001 462.366 537.372 401.757 537.372C379.403 537.372 361.095 535.963 345.398 533.659C346.781 534.709 348.138 535.759 349.521 536.808C364.296 538.754 381.349 539.907 401.757 539.907C462.776 539.907 493.785 529.46 523.769 519.345C553.574 509.308 584.378 498.937 644.987 498.937C705.596 498.937 736.4 509.308 766.206 519.345C796.19 529.46 827.224 539.907 888.243 539.907C949.262 539.907 980.297 529.46 1010.28 519.345C1040.09 509.308 1070.89 498.937 1131.5 498.937C1192.11 498.937 1222.91 509.308 1252.72 519.345C1282.7 529.46 1313.71 539.907 1374.73 539.907C1435.75 539.907 1466.76 529.46 1496.74 519.345C1512.39 514.07 1528.31 508.719 1548.7 504.801C1548.7 503.93 1548.72 503.06 1548.75 502.189L1548.8 502.24Z" fill="#074667"/>
<path d="M1469.03 498.938C1445.76 505.57 1417.8 510.819 1374.78 510.819C1314.35 510.819 1283.6 500.474 1253.87 490.462C1223.81 480.322 1192.7 469.85 1131.52 469.85C1070.35 469.85 1039.24 480.322 1009.18 490.462C979.45 500.474 948.723 510.819 888.267 510.819C827.812 510.819 797.085 500.474 767.356 490.462C737.295 480.322 706.184 469.85 645.011 469.85C583.839 469.85 552.728 480.322 522.667 490.462C502.899 497.12 482.696 503.931 453.607 507.746C455.374 509.027 457.167 510.281 458.933 511.536C485.871 507.593 505.178 501.089 524.1 494.713C553.829 484.701 584.556 474.356 645.011 474.356C705.467 474.356 736.194 484.701 765.922 494.713C795.984 504.853 827.095 515.326 888.267 515.326C949.44 515.326 980.551 504.853 1010.61 494.713C1040.34 484.701 1071.07 474.356 1131.52 474.356C1191.98 474.356 1222.71 484.701 1252.43 494.713C1282.5 504.853 1313.58 515.326 1374.75 515.326C1417.54 515.326 1445.61 510.204 1468.91 503.649C1468.88 502.113 1468.91 500.551 1469.01 498.964L1469.03 498.938Z" fill="#074667"/>
<path d="M1374.78 536.425C1314.35 536.425 1283.6 526.08 1253.87 516.068C1223.81 505.928 1192.7 495.455 1131.53 495.455C1070.35 495.455 1039.24 505.928 1009.18 516.068C979.452 526.08 948.725 536.425 888.269 536.425C827.814 536.425 797.087 526.08 767.358 516.068C737.297 505.928 706.186 495.455 645.013 495.455C583.841 495.455 552.73 505.928 522.668 516.068C509.84 520.395 496.806 524.774 481.289 528.359C482.723 529.537 484.131 530.74 485.514 531.969C499.777 528.487 512.016 524.364 524.077 520.318C553.805 510.307 584.532 499.962 644.988 499.962C705.443 499.962 736.17 510.307 765.899 520.318C795.96 530.458 827.071 540.931 888.243 540.931C949.416 540.931 980.527 530.458 1010.59 520.318C1040.32 510.307 1071.04 499.962 1131.5 499.962C1191.95 499.962 1222.68 510.307 1252.41 520.318C1282.47 530.458 1313.56 540.931 1374.73 540.931C1422.05 540.931 1451.34 534.658 1476.13 527.13C1475.31 525.798 1474.54 524.467 1473.85 523.135C1449.6 530.433 1420.79 536.45 1374.73 536.45L1374.78 536.425Z" fill="#074667"/>
<path d="M1374.78 485.212C1314.35 485.212 1283.6 474.867 1253.87 464.855C1223.81 454.715 1192.7 444.242 1131.52 444.242C1070.35 444.242 1039.24 454.715 1009.18 464.855C979.451 474.867 948.724 485.212 888.269 485.212C827.813 485.212 797.086 474.867 767.358 464.855C737.297 454.715 706.185 444.242 645.013 444.242C583.84 444.242 552.729 454.715 522.668 464.855C496.806 473.561 470.176 482.523 423.932 484.725C425.161 485.826 426.39 486.902 427.644 487.977C428.029 488.31 428.438 488.643 428.822 488.976C472.813 486.389 498.829 477.632 524.102 469.131C553.83 459.119 584.557 448.774 645.013 448.774C705.468 448.774 736.195 459.119 765.924 469.131C795.985 479.271 827.096 489.744 888.269 489.744C949.441 489.744 980.553 479.271 1010.61 469.131C1040.34 459.119 1071.07 448.774 1131.52 448.774C1191.98 448.774 1222.71 459.119 1252.44 469.131C1282.5 479.271 1313.58 489.744 1374.76 489.744C1420.13 489.744 1448.94 483.983 1473.06 476.864C1473.54 475.174 1474.03 473.459 1474.57 471.743C1450.16 479.143 1421.26 485.263 1374.76 485.263L1374.78 485.212Z" fill="#074667"/>
<path d="M1374.78 498.014C1314.35 498.014 1283.6 487.67 1253.87 477.658C1223.81 467.518 1192.7 457.045 1131.52 457.045C1070.35 457.045 1039.24 467.518 1009.18 477.658C979.451 487.67 948.724 498.014 888.268 498.014C827.813 498.014 797.086 487.67 767.358 477.658C737.296 467.518 706.185 457.045 645.013 457.045C583.84 457.045 552.729 467.518 522.668 477.658C499.622 485.416 475.988 493.38 438.373 496.58C440.14 497.938 441.932 499.269 443.725 500.601C478.958 497.118 501.824 489.436 524.102 481.934C553.83 471.922 584.557 461.577 645.013 461.577C705.468 461.577 736.195 471.922 765.924 481.934C795.985 492.074 827.096 502.547 888.268 502.547C949.441 502.547 980.552 492.074 1010.61 481.934C1040.34 471.922 1071.07 461.577 1131.52 461.577C1191.98 461.577 1222.71 471.922 1252.44 481.934C1282.5 492.074 1313.58 502.547 1374.75 502.547C1418.21 502.547 1446.45 497.272 1469.96 490.563C1470.21 488.95 1470.52 487.285 1470.88 485.621C1447.22 492.509 1418.93 498.04 1374.73 498.04L1374.78 498.014Z" fill="#074667"/>
<path d="M1374.78 472.409C1314.35 472.409 1283.6 462.065 1253.87 452.053C1223.81 441.913 1192.7 431.44 1131.53 431.44C1108.25 431.44 1089.35 432.951 1073.19 435.383C1063.29 439.25 1052.3 442.911 1039.75 446.778C999.885 459.145 941.376 476.993 891.7 472.358C890.574 472.358 889.421 472.358 888.269 472.358C827.814 472.358 797.087 462.013 767.358 452.001C737.297 441.861 706.186 431.389 645.013 431.389C583.841 431.389 552.729 441.861 522.668 452.001C494.476 461.501 465.362 471.283 410.898 472.281C412.358 473.741 413.843 475.2 415.354 476.66C467.718 475.226 496.371 465.598 524.102 456.252C553.831 446.24 584.558 435.895 645.013 435.895C705.469 435.895 736.196 446.24 765.924 456.252C795.985 466.392 827.097 476.865 888.269 476.865C949.442 476.865 980.553 466.392 1010.61 456.252C1040.34 446.24 1071.07 435.895 1131.53 435.895C1191.98 435.895 1222.71 446.24 1252.44 456.252C1282.5 466.392 1313.58 476.865 1374.76 476.865C1422.97 476.865 1452.49 470.361 1477.56 462.653C1478.18 460.887 1478.79 459.145 1479.46 457.379C1454.01 465.419 1424.41 472.409 1374.76 472.409H1374.78Z" fill="#074667"/>
<path d="M524.101 443.5C553.829 433.488 584.556 423.143 645.012 423.143C705.467 423.143 736.194 433.488 765.923 443.5C789.582 451.463 813.882 459.657 852.983 462.781C848.937 460.963 844.942 459.043 840.974 457.097C809.401 453.41 788.123 446.265 767.331 439.249C737.27 429.11 706.158 418.637 644.986 418.637C583.814 418.637 552.702 429.11 522.641 439.249C492.913 449.261 462.186 459.606 401.73 459.606C400.578 459.606 399.451 459.606 398.299 459.606C399.758 461.091 401.244 462.602 402.703 464.113C463.21 464.01 494.142 453.589 524.049 443.526L524.101 443.5Z" fill="#074667"/>
<path d="M401.756 451.285C462.929 451.285 494.014 440.812 524.076 430.672C553.804 420.66 584.531 410.315 644.987 410.315C705.442 410.315 736.169 420.66 765.898 430.672C781.824 436.049 798.059 441.503 818.902 445.447C814.6 443.04 810.298 440.581 806.048 438.098C791.683 434.641 779.418 430.493 767.332 426.421C737.27 416.281 706.159 405.809 644.987 405.809C583.814 405.809 552.703 416.281 522.642 426.421C492.913 436.433 462.186 446.778 401.731 446.778C395.867 446.778 390.31 446.676 384.984 446.496C386.623 448.007 388.236 449.543 389.85 451.131C393.69 451.233 397.634 451.285 401.731 451.285H401.756Z" fill="#074667"/>
<path d="M522.668 413.644C492.939 423.656 462.212 434.001 401.757 434.001C389.312 434.001 378.148 433.565 367.982 432.772C370.287 434.334 372.54 435.972 374.768 437.739C383.09 438.226 392.026 438.482 401.757 438.482C462.929 438.482 494.015 428.009 524.076 417.869C553.804 407.857 584.531 397.512 644.987 397.512C705.442 397.512 736.17 407.857 765.898 417.869C770.661 419.457 775.423 421.07 780.34 422.657C774.655 419.175 768.971 415.718 763.261 412.261C734.403 402.582 703.42 393.031 644.987 393.031C586.554 393.031 552.703 403.504 522.642 413.644H522.668Z" fill="#074667"/>
<path d="M1253.87 503.263C1223.81 493.123 1192.7 482.65 1131.52 482.65C1070.35 482.65 1039.24 493.123 1009.18 503.263C979.45 513.275 948.723 523.62 888.267 523.62C827.812 523.62 797.085 513.275 767.357 503.263C737.295 493.123 706.184 482.65 645.012 482.65C583.839 482.65 552.728 493.123 522.667 503.263C506.407 508.743 489.814 514.325 468.229 518.243C469.867 519.446 471.506 520.675 473.119 521.879C492.989 517.961 508.686 512.686 524.101 507.488C553.829 497.476 584.556 487.131 645.012 487.131C705.467 487.131 736.194 497.476 765.923 507.488C795.984 517.628 827.095 528.101 888.267 528.101C949.44 528.101 980.551 517.628 1010.61 507.488C1040.34 497.476 1071.07 487.131 1131.52 487.131C1191.98 487.131 1222.71 497.476 1252.43 507.488C1282.5 517.628 1313.58 528.101 1374.75 528.101C1418.69 528.101 1447.12 522.698 1470.78 515.887C1470.72 515.733 1470.65 515.554 1470.6 515.4C1470.21 514.146 1469.93 512.865 1469.67 511.534C1446.27 518.268 1418.18 523.62 1374.73 523.62C1314.3 523.62 1283.55 513.275 1253.82 503.263H1253.87Z" fill="#074667"/>
<path d="M401.757 412.876C462.929 412.876 494.015 402.403 524.076 392.263C553.805 382.252 584.532 371.907 644.987 371.907C664.806 371.907 681.424 373.033 695.866 374.877C692.64 373.033 689.439 371.164 686.238 369.269C674.101 368.092 660.53 367.426 645.013 367.426C583.84 367.426 552.729 377.899 522.668 388.039C492.94 398.05 462.212 408.395 401.757 408.395C341.327 408.395 310.574 398.05 280.846 388.039C260.899 381.33 240.465 374.442 211.121 370.575C210.967 372.06 210.891 373.571 210.891 375.082C239.697 378.923 259.772 385.683 279.438 392.289C309.499 402.429 340.584 412.876 401.757 412.902V412.876Z" fill="#074667"/>
<path d="M279.437 315.471C308.525 325.278 338.586 335.392 395.918 336.032C389.568 334.291 383.217 332.601 376.867 330.937C338.484 328.862 313.826 322.077 291.548 314.779C286.197 314.421 280.999 314.242 276.031 314.318C277.184 314.702 278.31 315.087 279.437 315.471Z" fill="#074667"/>
<path d="M279.437 328.273C309.499 338.413 340.584 348.86 401.757 348.886C414.995 348.886 426.825 348.399 437.528 347.529C433.149 346.351 428.72 345.122 424.264 343.892C417.223 344.225 409.746 344.43 401.731 344.43C341.301 344.43 310.548 334.085 280.82 324.074C273.215 321.513 265.533 318.927 257.314 316.494C255.06 317.16 252.756 318.082 250.426 319.183C260.771 322.051 270.117 325.2 279.386 328.324L279.437 328.273Z" fill="#074667"/>
<path d="M228.098 411.697C236.548 418.816 251.911 421.581 268.376 422.272C256.29 418.355 243.461 414.616 228.098 411.697Z" fill="#074667"/>
<path d="M279.437 417.895C283.662 419.303 287.887 420.737 292.215 422.145C296.619 421.941 300.869 421.685 304.89 421.377C296.465 418.893 288.63 416.256 280.846 413.644C262.128 407.345 243.026 400.893 216.498 396.949C217.42 398.639 218.418 400.304 219.571 401.968C243.845 405.911 261.795 411.954 279.386 417.895H279.437Z" fill="#074667"/>
<path d="M279.437 353.879C309.498 364.019 340.584 374.466 401.756 374.491C446.976 374.491 475.757 368.756 499.853 361.689C496.473 361.228 492.965 360.639 489.329 359.947C467.359 365.683 440.729 370.01 401.731 370.01C341.301 370.01 310.548 359.666 280.82 349.654C265.149 344.379 249.196 339.002 228.865 335.084C227.662 336.339 226.484 337.645 225.357 339.002C246.738 342.919 263.229 348.476 279.386 353.904L279.437 353.879Z" fill="#074667"/>
<path d="M279.437 405.092C295.492 410.494 311.854 416 332.928 419.969C337.05 420.276 341.019 420.942 344.783 421.94C360.633 424.245 379.147 425.679 401.757 425.704C462.929 425.704 494.015 415.232 524.076 405.092C553.804 395.08 584.531 384.735 644.987 384.735C684.702 384.735 711.613 389.216 733.814 395.105C728.667 392.263 723.495 389.498 718.271 386.835C699.015 382.891 675.816 380.254 645.013 380.254C583.84 380.254 552.729 390.727 522.668 400.867C492.939 410.879 462.212 421.223 401.757 421.223C341.327 421.223 310.574 410.879 280.846 400.867C261.001 394.183 240.721 387.347 211.633 383.48C211.914 385.042 212.324 386.604 212.785 388.166C240.567 392.033 260.207 398.639 279.386 405.117L279.437 405.092Z" fill="#074667"/>
<path d="M279.438 366.682C309.499 376.822 340.585 387.269 401.757 387.295C462.93 387.295 494.015 376.822 524.077 366.682C553.523 356.772 583.969 346.504 643.298 346.325C639.38 344.686 635.462 343.227 631.544 342.023C594.826 343.022 569.757 348.041 548.505 354.161C543.435 355.927 538.365 357.541 533.269 358.898C529.684 360.076 526.176 361.253 522.668 362.431C492.94 372.443 462.213 382.788 401.757 382.788C341.327 382.788 310.575 372.443 280.846 362.431C262.973 356.414 244.742 350.269 220.058 346.274C219.187 347.631 218.368 349.014 217.6 350.448C242.873 354.391 261.334 360.588 279.387 366.682H279.438Z" fill="#074667"/>
<path d="M279.437 341.076C309.498 351.216 340.584 361.663 401.756 361.689C430.23 361.689 452.174 359.41 470.533 355.979C466.923 355.134 463.236 354.238 459.472 353.29C443.468 355.697 424.776 357.208 401.756 357.208C341.326 357.208 310.573 346.863 280.845 336.851C268.349 332.652 255.674 328.376 240.746 324.816C239.159 325.917 237.597 327.095 236.086 328.35C252.474 332.012 266.045 336.595 279.411 341.102L279.437 341.076Z" fill="#074667"/>
<path d="M279.437 379.486C309.498 389.626 340.583 400.073 401.756 400.099C462.928 400.099 494.014 389.626 524.075 379.486C553.804 369.474 584.531 359.129 644.986 359.129C653.897 359.129 662.142 359.36 669.85 359.77C666.905 358.105 663.986 356.466 661.041 354.904C655.92 354.725 650.568 354.648 644.961 354.648C583.788 354.648 552.677 365.121 522.616 375.261C492.887 385.273 462.16 395.618 401.705 395.618C341.275 395.618 310.522 385.273 280.794 375.261C261.513 368.757 241.822 362.151 214.039 358.208C213.501 359.642 213.041 361.076 212.631 362.535C240.464 366.402 260.13 373.008 279.36 379.486H279.437Z" fill="#074667"/>
<path d="M645.012 443.295C584.736 443.295 553.599 453.435 523.922 463.421C524.895 465.342 525.894 467.262 526.867 469.182C555.776 459.452 586.375 449.696 645.012 449.696C703.65 449.696 735.964 460.016 765.616 470.002C787.33 477.325 809.581 484.802 843.279 488.438C839.514 486.697 835.802 484.879 832.14 482.907C830.194 481.857 828.273 480.782 826.379 479.681C802.668 475.738 785 469.797 767.69 463.959C737.552 453.819 706.389 443.295 645.038 443.295H645.012Z" fill="#074667"/>
<path d="M645.012 462.499C705.288 462.499 735.964 472.818 765.616 482.805C795.677 492.919 826.763 503.392 887.756 503.443C879.383 501.497 871.112 499.193 862.995 496.376C818.774 493.943 792.835 485.212 767.639 476.736C737.501 466.596 706.338 456.072 644.986 456.072C588.474 456.072 557.568 464.983 529.504 474.329C530.503 476.275 531.476 478.196 532.423 480.116C559.796 471.052 590.113 462.499 644.986 462.499H645.012Z" fill="#074667"/>
<path d="M510.402 410.647C515.165 409.111 519.8 407.549 524.434 405.987C539.849 400.789 555.52 395.514 575.493 391.647C561.742 391.289 548.99 392.159 538.159 394.72C533.96 396.052 529.837 397.409 525.792 398.791C520.926 400.942 516.65 403.631 513.219 406.934C512.067 408.035 511.145 409.29 510.428 410.647H510.402Z" fill="#074667"/>
<path d="M645.012 500.908C705.288 500.908 735.964 511.227 765.615 521.213C795.754 531.353 826.916 541.877 888.268 541.877C949.619 541.877 980.782 531.379 1010.92 521.213C1019.68 518.268 1028.54 515.272 1038.24 512.533C1033.79 511.304 1029.02 510.535 1024.16 510.1C1018.96 511.764 1013.92 513.454 1008.9 515.144C979.245 525.131 948.57 535.45 888.293 535.45C828.017 535.45 797.341 525.131 767.689 515.144C737.551 505.004 706.389 494.48 645.037 494.48C597.385 494.48 567.938 500.831 543.023 508.41C543.305 510.561 543.664 512.686 544.048 514.786C568.681 507.232 597.743 500.882 645.037 500.882L645.012 500.908Z" fill="#074667"/>
<path d="M645.013 475.304C705.289 475.304 735.965 485.623 765.617 495.609C795.755 505.749 826.917 516.273 888.269 516.273C914.745 516.273 935.589 514.327 953.154 511.28C941.708 510.973 930.288 510.23 918.97 508.873C909.624 509.513 899.459 509.872 888.269 509.872C827.993 509.872 797.317 499.553 767.665 489.566C737.527 479.426 706.365 468.902 645.013 468.902C592.137 468.902 561.691 476.712 534.984 485.367C535.932 487.364 536.828 489.336 537.647 491.231C563.714 482.832 593.596 475.304 645.013 475.304Z" fill="#074667"/>
<path d="M645.013 488.106C705.289 488.106 735.965 498.426 765.617 508.412C795.755 518.552 826.917 529.076 888.269 529.076C949.621 529.076 977.813 519.525 1006.72 509.846C1005.42 509.897 1004.14 509.974 1002.88 510.076C995.634 510.588 988.337 510.972 981.013 511.203C958.045 517.656 930.391 522.7 888.269 522.7C827.993 522.7 797.317 512.381 767.665 502.394C737.527 492.255 706.365 481.73 645.013 481.73C595.312 481.73 565.43 488.618 539.85 496.633C540.643 498.758 541.335 500.781 541.847 502.727C566.966 494.866 596.336 488.132 645.013 488.132V488.106Z" fill="#074667"/>
<path d="M508.636 424.013C514.013 422.298 519.237 420.556 524.409 418.815C552.32 409.418 581.126 399.713 634.643 398.612C624.554 396.717 614.388 395.104 604.376 393.875C568.221 397.306 544.996 405.116 522.361 412.747C517.803 414.283 513.194 415.819 508.482 417.356C508.277 419.455 508.329 421.657 508.636 424.039V424.013Z" fill="#074667"/>
<path d="M524.408 431.594C554.06 421.607 584.736 411.288 645.012 411.288C668.467 411.288 687.441 412.85 703.624 415.36C692.46 412.082 679.657 408.6 666.009 405.322C659.428 405.04 652.438 404.887 645.012 404.887C583.661 404.887 552.498 415.385 522.36 425.551C518.186 426.959 514.013 428.367 509.736 429.75C510.223 431.747 510.863 433.796 511.58 435.895C515.933 434.487 520.184 433.053 524.434 431.619L524.408 431.594Z" fill="#074667"/>
<path d="M524.409 457.199C554.061 447.213 584.737 436.894 645.013 436.894C705.289 436.894 735.965 447.213 765.617 457.199C779.7 461.936 794.014 466.75 811.502 470.54C806.151 467.083 800.876 463.55 795.627 459.99C785.692 457.199 776.627 454.152 767.665 451.131C737.527 440.991 706.365 430.467 645.013 430.467C583.661 430.467 552.499 440.965 522.361 451.131C521.08 451.566 519.774 452.001 518.494 452.437C519.416 454.357 520.338 456.303 521.311 458.249C522.335 457.891 523.385 457.558 524.409 457.199Z" fill="#074667"/>
<path d="M524.409 444.397C554.061 434.41 584.737 424.091 645.013 424.091C705.289 424.091 735.965 434.41 765.617 444.397C769.995 445.882 774.425 447.367 778.957 448.826C770.533 443.321 761.981 438.098 752.993 433.463C726.773 425.09 696.532 417.664 645.039 417.664C583.687 417.664 552.524 428.162 522.386 438.328C519.467 439.301 516.548 440.3 513.604 441.273C514.372 443.219 515.217 445.19 516.087 447.188C518.878 446.266 521.669 445.318 524.435 444.397H524.409Z" fill="#074667"/>
<path d="M645.011 501.549C705.185 501.549 735.81 511.868 765.41 521.829C792.988 531.124 821.436 540.7 872.981 542.288C868.32 539.497 863.481 536.706 858.436 533.889C817.083 531.124 792.117 522.725 767.843 514.557C737.653 504.391 706.44 493.867 644.986 493.867C640.428 493.867 636.024 493.944 631.773 494.046C630.646 496.428 629.904 499.014 629.494 501.805C634.436 501.651 639.583 501.549 644.986 501.549H645.011Z" fill="#074667"/>
<path d="M635.205 488.849C638.38 488.798 641.658 488.746 645.012 488.746C705.186 488.746 735.811 499.066 765.411 509.026C788.072 516.657 811.322 524.492 847.478 527.923C840.846 524.415 833.932 520.907 826.865 517.502C803.001 513.559 785.256 507.592 767.869 501.729C737.936 491.64 706.953 481.218 646.497 481.039C641.581 483.088 637.894 485.699 635.205 488.823V488.849Z" fill="#074667"/>
<path d="M765.438 496.222C778.65 500.677 792.042 505.184 808.097 508.871C761.827 488.566 710.462 473.33 669.774 476.301C669.032 476.352 668.315 476.429 667.598 476.48C713.355 478.708 739.781 487.593 765.438 496.222Z" fill="#074667"/>
</svg>
